<?xml version="1.0" encoding="utf-8"?>
<!-- Generator: Adobe Illustrator 17.0.0, SVG Export Plug-In . SVG Version: 6.00 Build 0)  -->
<!DOCTYPE svg PUBLIC "-//W3C//DTD SVG 1.1//EN" "http://www.w3.org/Graphics/SVG/1.1/DTD/svg11.dtd">
<svg version="1.1" xmlns="http://www.w3.org/2000/svg" xmlns:xlink="http://www.w3.org/1999/xlink" x="0px" y="0px" width="600px"
	 height="700px" viewBox="0 0 600 700" enable-background="new 0 0 600 700" xml:space="preserve">
<g id="Layer_14">
	<path fill="#E5F9CA" d="M300,368.548c95.424,0,180.326,45.012,234.663,114.952C573.728,433.218,597,370.056,597,301.452
		c0-164.029-132.971-297-297-297S3,137.423,3,301.452C3,370.056,26.272,433.218,65.337,483.5
		C119.674,413.56,204.576,368.548,300,368.548z"/>
</g>
<g id="Layer_9">
	<g>
		<path fill="#423412" d="M158.859,264.712c-0.016,0,0.215,0.094,0.484,0.278c0.284,0.184,0.62,0.459,0.907,0.821
			c0.284,0.357,0.477,0.821,0.503,1.331c0.027,0.502,0.057,1.079,0.091,1.726c0.101,1.313,0.248,2.911,0.524,4.756
			c0.257,1.843,0.634,3.946,1.023,6.276c0.386,2.328,0.797,4.877,1.117,7.587c0.342,2.707,0.594,5.574,0.765,8.535
			c0.176,2.962,0.301,6.021,0.34,9.124c0.041,3.075,0.084,6.199,0.126,9.323c0.064,3.105,0.17,6.202,0.461,9.204
			c0.296,2.999,0.728,5.918,1.538,8.595c0.795,2.683,2.028,5.081,3.586,7.106c1.56,2.024,3.393,3.695,5.216,5.089
			c3.671,2.779,7.121,4.655,9.49,6.003c2.389,1.33,3.78,2.05,3.78,2.05l-0.212,0.453c0,0-1.454-0.585-3.974-1.687
			c-1.261-0.551-2.779-1.249-4.496-2.118c-1.718-0.865-3.642-1.896-5.64-3.228c-1.994-1.329-4.077-2.976-5.95-5.102
			c-1.855-2.139-3.384-4.798-4.409-7.698c-1.046-2.898-1.66-5.987-2.068-9.104c-0.419-3.121-0.643-6.281-0.825-9.43
			c-0.196-3.144-0.243-6.315-0.37-9.354c-0.098-3.058-0.28-6.058-0.509-8.95c-0.455-5.793-1.181-11.118-2.004-15.71
			c-0.399-2.298-0.796-4.43-1.079-6.364c-0.3-1.927-0.472-3.642-0.589-5.059c-0.042-0.721-0.08-1.365-0.113-1.924
			c-0.023-0.552,0.175-0.993,0.439-1.37c0.274-0.372,0.599-0.659,0.876-0.854c0.261-0.194,0.489-0.297,0.473-0.296L158.859,264.712z
			"/>
	</g>
	<g>
		<path fill="#423412" d="M160.288,260.707l1.525,3.187l-0.317-0.125l0,0c0.543-1.191,1.707-1.623,2.755-1.603
			c1.079,0.019,2.007,0.59,2.765,1.163c1.543,1.182,2.531,2.656,3.342,4.113c1.556,2.951,2.382,5.999,2.996,9.027
			c0.62,3.033,0.944,6.067,1.197,9.094c0.252,3.028,0.341,6.048,0.38,9.063c0.018,3.015-0.044,6.022-0.16,9.023
			c-0.125,3-0.277,5.997-0.506,8.985c-0.193,2.992-0.486,5.971-0.747,8.953l-0.481,4.462c-0.074,0.72-0.177,1.538-0.227,2.179
			l-0.193,2.226c-0.174,1.511-0.134,2.895-0.189,4.335c-0.042,0.712,0.027,1.436,0.049,2.155c0.04,0.719,0.044,1.444,0.112,2.159
			c0.273,2.863,0.806,5.683,1.662,8.4c0.916,2.692,2.181,5.257,3.84,7.564c1.653,2.311,3.69,4.352,5.983,6.093
			c2.284,1.757,4.814,3.222,7.458,4.482c2.644,1.266,5.408,2.31,8.199,3.318c2.792,1.007,5.632,1.932,8.429,3.036
			c1.391,0.569,2.782,1.168,4.091,1.952c1.298,0.773,2.582,1.695,3.445,3.006l-0.411,0.284c-0.864-1.152-2.12-1.947-3.409-2.608
			c-1.294-0.67-2.685-1.17-4.082-1.642c-2.801-0.94-5.676-1.717-8.539-2.584c-5.712-1.725-11.479-3.835-16.543-7.385
			c-2.512-1.778-4.809-3.92-6.708-6.394c-1.905-2.469-3.396-5.251-4.495-8.167c-1.047-2.936-1.67-5.986-2.043-9.048
			c-0.09-0.765-0.116-1.533-0.176-2.3c-0.043-0.768-0.131-1.531-0.107-2.309c0.016-1.538-0.044-3.139,0.09-4.595l0.14-2.23
			c0.051-0.846,0.122-1.508,0.181-2.272l0.379-4.435c0.215-2.957,0.463-5.913,0.61-8.871c0.184-2.957,0.29-5.914,0.37-8.869
			c0.071-2.955,0.089-5.907,0.028-8.85c-0.058-2.942-0.155-5.882-0.414-8.792c-0.256-2.906-0.583-5.809-1.172-8.614
			c-0.571-2.8-1.375-5.554-2.621-7.876c-0.63-1.134-1.385-2.164-2.228-2.789c-0.419-0.341-0.852-0.445-1.211-0.805
			c-0.191-0.181-0.388-0.361-0.644-0.646c-0.254-0.235-0.565-0.546-1.011-0.922l0,0l-0.222,0.074l-0.095-0.199l-1.525-3.187
			L160.288,260.707z"/>
	</g>
	<g>
		<path fill="#423412" d="M174.812,256.606c0,0,0.077,0.12,0.227,0.353c0.155,0.258,0.385,0.641,0.685,1.141
			c0.268,0.49,0.598,1.094,0.987,1.804c0.355,0.719,0.762,1.546,1.219,2.472c0.412,0.941,0.868,1.984,1.364,3.119
			c0.458,1.148,0.913,2.404,1.42,3.736c0.465,1.347,0.898,2.799,1.387,4.319c0.446,1.532,0.824,3.167,1.267,4.858
			c0.406,1.7,0.693,3.5,1.064,5.345c0.353,1.849,0.511,3.792,0.786,5.77c0.388,3.973,0.642,8.184,0.5,12.531
			c-0.031,1.086,0.011,2.184-0.08,3.283c-0.093,1.099-0.187,2.206-0.281,3.32c-0.095,1.113-0.19,2.232-0.285,3.357
			c-0.106,1.123-0.336,2.238-0.5,3.364c-0.18,1.124-0.36,2.252-0.541,3.383l-0.272,1.699c-0.099,0.565-0.256,1.12-0.381,1.681
			c-0.531,2.237-1.064,4.483-1.596,6.729c-0.633,2.217-1.377,4.402-2.057,6.593c-0.677,2.224-1.5,4.261-1.59,6.363
			c-0.27,4.312,0.867,8.649,2.225,12.634c1.387,4.008,3.171,7.739,5.041,11.168c1.888,3.423,3.871,6.556,5.862,9.334
			c3.974,5.567,7.89,9.756,10.849,12.432c1.476,1.345,2.706,2.321,3.557,2.969c0.864,0.631,1.325,0.968,1.325,0.968l-0.084,0.124
			c0,0-0.471-0.326-1.355-0.937c-0.871-0.629-2.132-1.577-3.651-2.89c-3.044-2.613-7.091-6.723-11.24-12.228
			c-2.079-2.747-4.161-5.854-6.159-9.266c-1.981-3.42-3.887-7.151-5.414-11.215c-1.489-4.055-2.806-8.455-2.645-13.187
			c0.054-2.435,0.919-4.694,1.499-6.834c0.614-2.177,1.291-4.345,1.858-6.54c0.466-2.219,0.932-4.437,1.396-6.647
			c0.109-0.553,0.249-1.1,0.331-1.657l0.222-1.671c0.148-1.112,0.296-2.221,0.443-3.325c0.131-1.105,0.33-2.199,0.404-3.299
			c0.065-1.101,0.129-2.196,0.192-3.285c0.064-1.088,0.128-2.169,0.191-3.242c0.062-1.073-0.008-2.142-0.006-3.199
			c0.03-4.232-0.325-8.31-0.799-12.145c-0.317-1.907-0.515-3.781-0.903-5.557c-0.405-1.771-0.724-3.499-1.158-5.125
			c-0.47-1.616-0.872-3.178-1.338-4.637c-0.508-1.444-0.958-2.826-1.435-4.102c-0.518-1.259-0.983-2.447-1.446-3.527
			c-0.498-1.063-0.956-2.04-1.369-2.922c-0.451-0.858-0.854-1.624-1.204-2.29c-0.375-0.645-0.693-1.193-0.951-1.638
			c-0.262-0.414-0.463-0.731-0.598-0.944c-0.156-0.229-0.236-0.347-0.236-0.347L174.812,256.606z"/>
	</g>
	<g>
		<path fill="#423412" d="M404.683,279.21c0,0,0.146,0.134,0.428,0.395c0.236,0.215,0.556,0.507,0.777,0.861
			c0.214,0.339,0.361,0.742,0.28,1.185c-0.01,0.464-0.064,0.985-0.033,1.596c-0.011,1.207,0.171,2.708,0.446,4.421
			c0.179,0.855,0.359,1.768,0.607,2.723c0.292,0.948,0.508,1.963,0.903,2.988c0.364,1.031,0.717,2.113,1.203,3.199
			c0.229,0.547,0.461,1.104,0.697,1.669c0.244,0.562,0.535,1.117,0.807,1.689c0.276,0.57,0.555,1.149,0.838,1.734
			c0.296,0.58,0.624,1.155,0.939,1.744c0.63,1.178,1.284,2.377,2.036,3.554c1.415,2.425,3.063,4.724,4.764,7.234
			c0.844,1.235,1.711,2.46,2.552,3.726c0.815,1.32,1.633,2.644,2.451,3.969c0.733,1.377,1.519,2.714,2.201,4.116
			c0.622,1.44,1.368,2.798,1.833,4.302c0.254,0.739,0.532,1.463,0.759,2.203c0.175,0.761,0.35,1.519,0.523,2.271
			c0.208,0.742,0.259,1.52,0.34,2.282c0.054,0.765,0.216,1.513,0.149,2.274c-0.023,0.755-0.047,1.504-0.07,2.246
			c-0.081,0.735-0.227,1.455-0.337,2.169c-0.066,0.355-0.105,0.714-0.192,1.059c-0.1,0.341-0.2,0.679-0.299,1.016
			c-0.209,0.668-0.386,1.34-0.621,1.975c-1.005,2.516-2.158,4.772-3.381,6.733c-1.184,1.99-2.44,3.68-3.507,5.207
			c-1.118,1.487-2.092,2.781-2.923,3.823c-1.671,2.073-2.625,3.258-2.625,3.258l-0.401-0.298c0,0,0.838-1.265,2.304-3.48
			c0.713-1.116,1.58-2.471,2.573-4.026c0.941-1.58,2.023-3.352,3.05-5.346c1.065-1.976,2.017-4.198,2.801-6.584
			c0.18-0.6,0.294-1.222,0.452-1.841c0.076-0.31,0.152-0.621,0.228-0.934c0.063-0.315,0.079-0.638,0.121-0.959
			c0.064-0.643,0.166-1.29,0.206-1.945c-0.014-0.656-0.027-1.318-0.041-1.986c-0.222-2.657-0.812-5.384-1.984-8.013
			c-0.461-1.345-1.225-2.616-1.846-3.93c-0.687-1.293-1.49-2.549-2.228-3.826c-0.822-1.23-1.644-2.46-2.462-3.685
			c-0.884-1.225-1.765-2.445-2.639-3.656c-1.705-2.401-3.538-4.85-5.047-7.314c-0.808-1.207-1.522-2.448-2.212-3.672
			c-0.345-0.611-0.701-1.207-1.027-1.812c-0.307-0.616-0.61-1.225-0.908-1.826c-0.292-0.605-0.603-1.188-0.868-1.786
			c-0.257-0.602-0.511-1.196-0.76-1.779c-0.524-1.154-0.92-2.324-1.32-3.438c-0.43-1.101-0.686-2.224-1.009-3.258
			c-0.281-1.05-0.492-2.069-0.696-3.023c-0.329-1.935-0.545-3.645-0.548-5.098c0.02-1.428-0.146-2.65,0.591-3.367
			c0.328-0.35,0.75-0.594,1.078-0.735c0.323-0.136,0.58-0.133,0.566-0.145L404.683,279.21z"/>
	</g>
	<g>
		<path fill="#423412" d="M397.931,272.146l0.168,3.529l0.01,0.22l-0.23,0.04l0,0c-0.214,0.542-0.34,0.963-0.453,1.291
			c-0.091,0.372-0.178,0.624-0.261,0.874c-0.145,0.487-0.477,0.784-0.685,1.283c-0.446,0.95-0.623,2.215-0.64,3.512
			c0.003,2.636,0.601,5.442,1.424,8.178c0.81,2.749,1.898,5.46,3.05,8.141c1.151,2.685,2.459,5.32,3.802,7.938
			c1.341,2.621,2.756,5.212,4.219,7.78c1.471,2.564,2.966,5.118,4.529,7.634c1.531,2.535,3.15,5.021,4.741,7.523l2.435,3.726
			c0.414,0.644,0.791,1.193,1.236,1.914l1.18,1.898c0.808,1.219,1.514,2.657,2.257,4.004c0.389,0.674,0.673,1.387,1,2.084
			c0.31,0.704,0.651,1.392,0.934,2.109c1.123,2.872,2.019,5.854,2.489,8.935c0.414,3.088,0.419,6.244-0.088,9.322
			c-0.5,3.078-1.507,6.053-2.876,8.809c-2.777,5.525-6.856,10.116-11.068,14.342c-2.11,2.121-4.274,4.168-6.295,6.322
			c-1.006,1.078-1.994,2.177-2.816,3.381c-0.821,1.193-1.551,2.488-1.766,3.912l-0.497-0.055c0.138-1.563,0.832-2.983,1.609-4.279
			c0.781-1.311,1.722-2.497,2.677-3.658c1.94-2.298,4.002-4.458,5.983-6.668c1.98-2.21,3.919-4.44,5.647-6.807
			c1.731-2.362,3.265-4.852,4.443-7.481c1.193-2.62,2.02-5.383,2.381-8.201c0.367-2.818,0.266-5.676-0.203-8.48
			c-0.534-2.799-1.4-5.535-2.517-8.185c-0.28-0.662-0.619-1.302-0.925-1.954c-0.321-0.644-0.604-1.313-0.978-1.921
			c-0.731-1.242-1.351-2.48-2.22-3.728l-1.225-1.869c-0.348-0.54-0.826-1.211-1.233-1.811l-2.538-3.701
			c-1.643-2.502-3.313-4.987-4.9-7.53c-1.617-2.522-3.171-5.089-4.703-7.672c-1.524-2.588-3.004-5.207-4.417-7.87
			c-1.394-2.674-2.747-5.375-3.96-8.161c-1.212-2.785-2.364-5.61-3.256-8.575c-0.895-2.957-1.612-6.032-1.64-9.369
			c0.024-1.667,0.196-3.434,0.994-5.206c0.396-0.863,0.943-1.806,1.884-2.334c0.913-0.513,2.143-0.684,3.185,0.107l0,0l-0.22,0.26
			l-0.168-3.529L397.931,272.146z"/>
	</g>
	<g>
		<path fill="#423412" d="M386.619,275.821c0,0-0.015,0.142-0.044,0.418c-0.018,0.252-0.045,0.627-0.079,1.115
			c-0.017,0.514-0.037,1.148-0.062,1.893c0.007,0.753,0.016,1.618,0.025,2.587c0.054,0.973,0.114,2.049,0.179,3.222
			c0.104,1.171,0.258,2.437,0.398,3.792c0.185,1.35,0.443,2.779,0.68,4.292c0.281,1.505,0.667,3.071,1.019,4.717
			c0.388,1.637,0.926,3.31,1.409,5.061c0.5,1.747,1.213,3.491,1.838,5.321c1.4,3.601,3.021,7.361,5.052,11.073
			c0.504,0.93,0.948,1.904,1.511,2.819c0.564,0.915,1.133,1.837,1.705,2.764c0.572,0.928,1.148,1.862,1.726,2.801
			c0.587,0.934,1.28,1.803,1.92,2.714c0.653,0.903,1.308,1.809,1.966,2.718l0.988,1.366c0.336,0.451,0.719,0.866,1.077,1.302
			c1.456,1.726,2.918,3.459,4.379,5.192c1.539,1.664,3.163,3.253,4.735,4.879c1.525,1.61,3.357,3.188,4.559,5.307
			c2.384,4.091,3.31,8.59,3.92,12.866c0.582,4.302,0.672,8.491,0.548,12.441c-0.143,3.952-0.504,7.674-1.032,11.079
			c-1.045,6.814-2.661,12.351-4.103,16.094c-0.715,1.876-1.376,3.309-1.845,4.275c-0.489,0.957-0.749,1.467-0.749,1.467l-0.133-0.07
			c0,0,0.246-0.515,0.708-1.48c0.442-0.974,1.063-2.417,1.725-4.3c1.338-3.759,2.801-9.304,3.662-16.089
			c0.437-3.39,0.699-7.088,0.739-10.997c0.022-3.906-0.176-8.036-0.853-12.223c-0.693-4.153-1.747-8.51-4.028-12.179
			c-1.076-1.808-2.766-3.212-4.416-4.85c-1.638-1.607-3.328-3.179-4.936-4.831c-1.534-1.725-3.067-3.45-4.595-5.169
			c-0.376-0.435-0.777-0.849-1.132-1.3l-1.044-1.367c-0.695-0.911-1.389-1.819-2.079-2.723c-0.677-0.914-1.408-1.786-2.034-2.725
			c-0.617-0.945-1.232-1.886-1.842-2.821c-0.611-0.936-1.218-1.866-1.82-2.79c-0.602-0.925-1.085-1.911-1.627-2.853
			c-2.185-3.761-3.956-7.588-5.498-11.271c-0.696-1.872-1.477-3.658-2.043-5.453c-0.548-1.8-1.149-3.521-1.596-5.211
			c-0.412-1.699-0.853-3.318-1.187-4.878c-0.29-1.57-0.596-3.054-0.825-4.461c-0.185-1.414-0.38-2.735-0.52-3.963
			c-0.101-1.234-0.193-2.368-0.277-3.393c-0.037-1.032-0.07-1.953-0.098-2.754c0.006-0.809,0.01-1.498,0.014-2.056
			c0.027-0.582,0.048-1.029,0.062-1.329c0.022-0.276,0.033-0.419,0.033-0.419L386.619,275.821z"/>
	</g>
</g>
<g id="Layer_1">
	<path fill="#FFF7E6" d="M63.864,512.396c0-71.95,133.93-35.523,153.32-61.804c28.525-38.661,11.679-93.257,11.679-93.257
		c17.979,53.253,124.787,21.613,124.787,21.613s-10.182,52.019,12.865,67.185c57.2,37.64,171.408,9.291,174.925,71.421
		L63.864,512.396z"/>
	<path fill="#FFF2E1" d="M347.784,421.429c0.938,6.33,1.407,15.034,11.254,24.383c10.054,9.545,43.979,17.79,47.011,18.756
		c4.899,1.56-48.182-3.452-67.642-16.317c-49.938-33.013-75.391-28.297-99.344-23.164c-3.282,0.703,5.683-49.214,2.286-49.937
		c-10.608-2.256,101.279,11.168,105.499,5.484C346.846,380.635,346.846,415.099,347.784,421.429z"/>
	<path fill="#FFF7E6" d="M191.171,325.915c4.689,20.744,42.201,46.26,67.991,81.94c15.624,21.617,76.039-8.476,112.771-35.68
		c31.651-23.441,54.182-123.737,51.579-158.278c-8.44-112.019-75.121-149.363-128.355-149.373
		c-46.546-0.008-122.742,10.387-120.383,143.15C176.701,316.111,186.482,305.171,191.171,325.915z"/>
	<path fill="#FFF2E1" d="M396.388,463.658c0,0-70.918,5.012-93.548,0C307.93,479.409,332.71,471.534,396.388,463.658z"/>
	<path fill="#FFF2E1" d="M190.08,463.658c0,0,70.761,3.173,93.548,0C278.539,479.409,253.758,471.534,190.08,463.658z"/>
	<path opacity="0.5" fill="#FFFFFF" d="M187.341,198.578c0,0,119.251-292.802,197.17-89.242
		C384.51,109.336,339.289,194.333,187.341,198.578z"/>
</g>
<g id="Layer_11">
	<path fill="#DBD4FF" d="M465.238,470.335c0,0-224.72,88.833-322.635-8.825c0,0-74.519-8.665-78.739,50.885
		c-8.187,115.529,103.685,96.598,355.059,20.866c64.149-19.326,122.516-15.708,122.516-15.708S541.44,463.854,465.238,470.335z"/>
	<path opacity="0.3" fill="#FFFFFF" d="M478.86,473.545c0,0,44.919-5.448,58.532,37.365c0,0-20.009-21.774-26.897-26.087
		C497.206,476.5,478.86,473.545,478.86,473.545z"/>
	<path opacity="0.4" fill="#FFFFFF" d="M487.809,473.681c0,0,30.059,0.962,49.583,37.229
		C537.9,511.854,528.863,474.924,487.809,473.681z"/>
	<path opacity="0.4" fill="#FFFFFF" d="M70.954,534.536c0,0-4.024,98.29,221.941,26.146
		C292.895,560.683,91.716,578.208,70.954,534.536z"/>
	<path opacity="0.4" fill="#FFFFFF" d="M292.895,560.683C67.947,632.187,70.954,534.536,70.954,534.536
		C102.008,612.484,297.288,559.286,292.895,560.683z"/>
	<g>
		<path fill="#C0B3FF" d="M142.984,461.187c0,0,0.277,0.207,0.81,0.555c0.518,0.356,1.314,0.898,2.361,1.554
			c2.075,1.339,5.16,3.215,9.115,5.421c3.956,2.205,8.765,4.779,14.407,7.409c5.633,2.638,12.005,5.479,19.125,8.183
			c7.112,2.697,14.844,5.561,23.272,7.947c1.048,0.312,2.104,0.625,3.166,0.941c1.078,0.268,2.162,0.538,3.253,0.809
			c2.185,0.535,4.386,1.114,6.629,1.633c2.26,0.457,4.545,0.919,6.852,1.385c1.156,0.223,2.307,0.492,3.481,0.684
			c1.175,0.189,2.355,0.379,3.54,0.57c2.371,0.375,4.758,0.785,7.171,1.142c2.427,0.283,4.872,0.567,7.331,0.853
			c1.23,0.144,2.464,0.288,3.701,0.433c1.244,0.094,2.491,0.188,3.742,0.282c2.502,0.191,5.017,0.383,7.542,0.575
			c2.524,0.208,5.077,0.207,7.628,0.323c2.554,0.075,5.114,0.208,7.684,0.237c2.572-0.017,5.15-0.034,7.73-0.051
			c2.581-0.033,5.166,0.055,7.75-0.109c2.586-0.113,5.172-0.226,7.755-0.338c2.584-0.114,5.168-0.192,7.74-0.451
			c2.575-0.205,5.146-0.409,7.709-0.613c2.563-0.213,5.125-0.36,7.661-0.705c2.54-0.3,5.071-0.599,7.589-0.897
			c2.516-0.316,5.034-0.531,7.518-0.902c4.969-0.754,9.878-1.499,14.706-2.231c4.825-0.776,9.541-1.729,14.179-2.559
			c2.314-0.443,4.617-0.816,6.868-1.302c2.252-0.487,4.477-0.969,6.673-1.444c4.389-0.962,8.674-1.849,12.801-2.793
			c4.114-1.008,8.09-1.983,11.906-2.918c3.819-0.937,7.493-1.799,10.931-2.815c3.449-0.98,6.745-1.838,9.833-2.685
			c3.086-0.852,5.997-1.585,8.652-2.38c2.655-0.799,5.094-1.534,7.296-2.197c4.42-1.304,7.892-2.329,10.26-3.027
			c2.376-0.683,3.644-1.048,3.644-1.048l0.352,0.936c0,0-1.21,0.524-3.479,1.508c-2.277,0.968-5.617,2.388-9.868,4.195
			c-2.133,0.892-4.494,1.881-7.064,2.956c-2.579,1.056-5.413,2.073-8.42,3.23c-6.029,2.267-12.804,4.936-20.371,7.338
			c-3.77,1.254-7.697,2.561-11.761,3.913c-2.027,0.699-4.136,1.249-6.258,1.878c-2.127,0.614-4.286,1.238-6.475,1.87
			c-2.191,0.632-4.412,1.274-6.66,1.923c-2.249,0.649-4.565,1.153-6.887,1.746c-4.658,1.121-9.396,2.379-14.265,3.453
			c-4.889,0.996-9.859,2.009-14.891,3.034c-5.053,0.932-10.205,1.695-15.387,2.542c-2.586,0.459-5.213,0.723-7.839,1.051
			c-2.629,0.316-5.265,0.634-7.907,0.952c-2.639,0.351-5.304,0.521-7.969,0.725c-2.666,0.203-5.334,0.405-8.003,0.608
			c-2.666,0.254-5.351,0.254-8.026,0.375c-2.678,0.083-5.353,0.167-8.023,0.25c-2.672,0.032-5.344-0.042-8.006-0.059
			c-1.332-0.015-2.661-0.031-3.989-0.046c-1.327-0.017-2.653-0.013-3.975-0.108c-2.646-0.146-5.281-0.292-7.903-0.437
			c-1.311-0.081-2.619-0.162-3.923-0.243c-1.302-0.133-2.6-0.265-3.894-0.398c-2.589-0.266-5.163-0.53-7.718-0.792
			c-2.549-0.339-5.074-0.735-7.582-1.096c-1.254-0.185-2.502-0.369-3.745-0.552c-1.243-0.182-2.467-0.466-3.692-0.695
			c-2.447-0.484-4.87-0.962-7.268-1.436c-2.386-0.54-4.734-1.142-7.06-1.702c-1.162-0.284-2.317-0.567-3.465-0.848
			c-1.137-0.331-2.266-0.66-3.387-0.987c-9.02-2.434-17.316-5.677-24.722-9.16c-1.832-0.916-3.626-1.813-5.379-2.69
			c-1.703-0.977-3.367-1.932-4.988-2.862c-0.404-0.233-0.806-0.464-1.205-0.693c-0.387-0.253-0.772-0.504-1.154-0.754
			c-0.762-0.499-1.514-0.992-2.255-1.477c-0.739-0.486-1.467-0.965-2.184-1.436c-0.694-0.51-1.378-1.013-2.051-1.508
			c-5.403-3.905-9.72-7.844-13.004-11.328c-3.293-3.477-5.589-6.463-6.999-8.617c-0.706-1.08-1.221-1.903-1.554-2.496
			c-0.33-0.59-0.473-0.89-0.473-0.89L142.984,461.187z"/>
	</g>
</g>
<g id="nose">
	<path opacity="0.5" fill="#FFFFFF" d="M302.886,287.5c0,0-5.546-25.962-2.886-26.685c67-18.197,96.492,17.396,96.492,17.396
		S379.489,258.775,329.668,297C306.504,314.773,302.886,287.5,302.886,287.5z"/>
	<path fill="#EFD4B9" d="M286.039,321.708c-5.433,4.263-4.555,5.117-8.313,4.982c0,0,6.033,2.4,15.677-2.099
		C300.412,321.321,291.473,317.446,286.039,321.708z"/>
	<path opacity="0.6" fill="#FFFFFF" d="M277.726,318.82c1.769-9.805,8.221-70.536,7.455-79.315
		c-1.153-13.223,11.163,15.239,3.776,66.013C286.98,319.106,275.585,330.69,277.726,318.82z"/>
	<path opacity="0.7" d="M306.306,312.561c0,0-6.696-0.031-8.428,0.625c-1.731,0.656-8.428,3.193-8.428,3.193
		s5.738-7.475,10.424-5.951S306.306,312.561,306.306,312.561z"/>
	<path opacity="0.7" d="M273.657,315.535c0,0-6.755-5.106-12.816-2.818c0,0,4.948-1.984,9.09-1.334
		C274.8,312.147,273.657,315.535,273.657,315.535z"/>
	<g>
		<path fill="#FCEDD6" d="M310.286,315.421c-1.119-0.793-2.225-1.511-3.394-2.17c-1.161-0.654-2.363-1.226-3.598-1.635
			c-1.23-0.418-2.506-0.655-3.737-0.595c-1.232,0.055-2.4,0.42-3.439,1.055c-2.094,1.282-3.656,3.449-5.217,5.635
			c-1.572,2.194-3.128,4.565-5.413,6.542c-1.138,0.977-2.481,1.837-3.989,2.361c-0.75,0.268-1.532,0.442-2.316,0.566
			c-0.393,0.061-0.787,0.098-1.181,0.122c-0.463,0.013-0.306,0.017-0.737-0.022c-0.39-0.049-0.688-0.138-0.994-0.26
			c-0.62-0.251-1.166-0.702-1.532-1.175c-0.376-0.477-0.595-0.958-0.763-1.411c-0.327-0.913-0.431-1.729-0.498-2.521
			c-0.107-1.57,0.003-3.026,0.166-4.457c0.34-2.854,0.95-5.584,1.661-8.277c0.369-1.342,0.762-2.672,1.183-3.993
			c0.436-1.323,0.881-2.612,1.378-3.949l-0.117,0.449l1.391-8.535l1.26-8.554c0.379-2.856,0.815-5.708,1.148-8.57
			c0.351-2.861,0.707-5.721,1.012-8.587c0.163-1.432,0.32-2.865,0.449-4.3l0.41-4.304l0.364-4.308l0.302-4.313
			c0.192-2.876,0.35-5.755,0.435-8.636c0.047-1.441,0.069-2.881,0.079-4.321c0.007-1.436,0.017-2.889-0.049-4.305l0.995-0.102
			c0.375,2.916,0.561,5.808,0.673,8.717c0.124,2.906,0.175,5.813,0.191,8.721c-0.005,2.907-0.067,5.813-0.151,8.719
			c-0.039,1.453-0.12,2.903-0.182,4.355c-0.058,1.453-0.144,2.903-0.237,4.353c-0.158,2.903-0.378,5.8-0.627,8.695
			c-0.221,2.898-0.544,5.784-0.811,8.679c-0.137,1.447-0.326,2.886-0.489,4.33l-0.507,4.328l-1.142,8.639l-0.026,0.197l-0.091,0.252
			c-0.441,1.218-0.875,2.506-1.28,3.771c-0.42,1.268-0.825,2.539-1.202,3.815c-0.772,2.543-1.484,5.105-1.957,7.636
			c-0.23,1.259-0.394,2.525-0.39,3.676c0.007,0.564,0.057,1.116,0.174,1.492c0.054,0.188,0.119,0.336,0.161,0.399
			c0.045,0.068,0.04,0.066,0.048,0.081c-0.284,0.006,0.619,0.108,1.121,0.057c0.568-0.024,1.124-0.128,1.671-0.276
			c1.093-0.297,2.13-0.854,3.106-1.582c1.963-1.466,3.612-3.577,5.336-5.694c0.867-1.062,1.755-2.142,2.764-3.159
			c1.006-1.012,2.142-1.974,3.483-2.669c1.332-0.702,2.872-1.068,4.363-1.029c1.496,0.03,2.919,0.41,4.239,0.926
			c1.325,0.518,2.559,1.189,3.733,1.931c1.167,0.737,2.305,1.566,3.365,2.403L310.286,315.421z"/>
	</g>
	<g>
		<path fill="#FCEDD6" d="M346.334,318.561c0,0,0.102,0.208,0.292,0.597c0.116,0.167,0.272,0.343,0.435,0.563
			c0.222,0.2,0.443,0.454,0.751,0.686c0.599,0.479,1.407,0.972,2.382,1.445c0.995,0.44,2.137,0.894,3.437,1.247
			c1.296,0.355,2.723,0.666,4.253,0.854c1.524,0.216,3.148,0.336,4.825,0.324c1.676,0.008,3.405-0.108,5.143-0.33
			c1.742-0.211,3.478-0.61,5.19-1.063c1.7-0.498,3.387-1.046,4.967-1.775c1.602-0.678,3.09-1.53,4.506-2.378
			c0.707-0.426,1.366-0.905,2.032-1.34c0.642-0.47,1.251-0.956,1.855-1.414c0.582-0.485,1.128-0.984,1.667-1.45
			c0.537-0.47,1.002-0.985,1.478-1.445c0.483-0.454,0.892-0.943,1.298-1.392c0.402-0.453,0.822-0.847,1.197-1.24
			c0.734-0.798,1.484-1.417,2.091-1.95c0.607-0.533,1.141-0.924,1.528-1.181c0.383-0.259,0.62-0.381,0.62-0.381l0.421,0.27
			c0,0-0.024,0.259-0.13,0.713c-0.102,0.456-0.286,1.111-0.592,1.909c-0.311,0.794-0.823,1.679-1.457,2.665
			c-0.681,0.949-1.539,1.959-2.574,2.961c-0.522,0.497-1.035,1.046-1.625,1.554c-0.593,0.504-1.193,1.04-1.834,1.561
			c-0.663,0.495-1.334,1.018-2.041,1.522c-0.731,0.47-1.458,0.983-2.236,1.441c-1.563,0.904-3.227,1.762-4.991,2.451
			c-1.745,0.737-3.596,1.277-5.451,1.755c-1.876,0.402-3.766,0.725-5.643,0.855c-1.874,0.138-3.725,0.179-5.505,0.026
			c-1.78-0.117-3.489-0.37-5.085-0.715c-1.599-0.33-3.073-0.811-4.407-1.31c-1.338-0.491-2.505-1.109-3.505-1.7
			c-0.986-0.625-1.805-1.245-2.387-1.87c-0.301-0.298-0.52-0.623-0.729-0.877c-0.177-0.306-0.332-0.566-0.432-0.772
			c-0.136-0.411-0.209-0.631-0.209-0.631L346.334,318.561z"/>
	</g>
	<path opacity="0.05" fill="#FF809E" d="M304.107,291.433c2.2,11.679,14.729,13.239,24.5,16.744
		c10.779,3.866,19.119,16.454,35.465,16.415c15.277-0.037,31.106-8.638,34.952-26.314c2.653-12.193,3.343-26.076-22.398-24.943
		C352.223,274.407,308.765,316.165,304.107,291.433z"/>
	<path opacity="0.05" fill="#FF809E" d="M248.999,296.98c0,0,18.308,0,2.708,6.132c-4.619,1.815-9.379,8.286-13.944,15.012
		c-0.883,1.302-1.765,2.595-2.646,3.839c-11.053,15.601-44.17,7.328-45.767-28.548C187.809,258.783,182.756,296.98,248.999,296.98z"
		/>
	<path opacity="0.5" fill="#FFFFFF" d="M279.053,258.75c-3.445-3.541-54.636-7.867-66.087-2.617
		c-11.451,5.25-22.903,27.785-22.903,27.785c0-11.76,39.555,27.465,82.309,7.082C273.728,290.354,282.499,262.291,279.053,258.75z"
		/>
	<g>
		<path fill="#FCEDD6" d="M262.626,300.118c0,0-0.176-0.011-0.452,0.033c-0.295,0.045-0.719,0.158-1.234,0.351
			c-0.516,0.2-1.118,0.507-1.79,0.867c-0.33,0.212-0.676,0.438-1.044,0.656c-0.366,0.219-0.732,0.519-1.125,0.779
			c-0.789,0.511-1.584,1.223-2.46,1.86c-0.831,0.743-1.755,1.424-2.651,2.247c-0.899,0.815-1.863,1.598-2.792,2.484
			c-0.929,0.879-1.934,1.698-2.852,2.632c-0.943,0.904-1.912,1.777-2.833,2.683c-0.913,0.913-1.835,1.791-2.727,2.644
			c-0.901,0.844-1.727,1.711-2.551,2.493c-0.829,0.783-1.612,1.522-2.335,2.205c-2.839,2.791-4.939,4.512-4.939,4.512l-0.195-0.156
			c0,0,1.283-2.375,3.517-5.73c1.175-1.63,2.526-3.558,4.127-5.504c0.814-0.962,1.655-1.959,2.533-2.95
			c0.866-1.003,1.845-1.94,2.778-2.916c0.939-0.967,1.955-1.877,2.957-2.76c0.975-0.91,2.057-1.693,3.076-2.465
			c1.011-0.782,2.115-1.41,3.107-2.039c0.526-0.285,1.044-0.555,1.546-0.805c0.251-0.125,0.497-0.248,0.739-0.369
			c0.256-0.102,0.506-0.202,0.752-0.3c0.959-0.417,1.914-0.675,2.748-0.874c0.43-0.069,0.833-0.134,1.205-0.194
			c0.37-0.054,0.735-0.028,1.042-0.041c0.631,0.005,1.127,0.109,1.451,0.211c0.343,0.107,0.483,0.213,0.483,0.213L262.626,300.118z"
			/>
	</g>
</g>
<g id="lips__x26__chin" display="none">
	<path display="inline" fill="#FFFFFF" d="M298.898,346.895c-3.338-1.915-16.816,0.11-20.974,0.134
		c-7.412,0.043-5.46-5.914-13.591-1.909c-6.971,3.434-25.271-1.669-25.271-1.669s1.313,1.013,5.501,3.921
		c7.081,4.917,14.175,20.143,34.322,21.668c22.185,1.68,38.272-12.815,47.146-18.953c2.994-2.071,13.209-12.885,14.115-13.511
		C336.11,339.271,308.114,352.183,298.898,346.895z"/>
	<path display="inline" fill="#FF809E" d="M299.744,346.377c-16.078-3.043-21.995,2.133-24.924-0.869
		c-2.929-3.003-8.419-3.059-16.104-1.423c-7.576,1.612-19.655-0.633-19.655-0.633s1.313,1.013,5.501,3.921
		c7.081,4.917,14.175,20.143,34.322,21.668c22.185,1.68,38.272-12.815,47.146-18.953c2.994-2.071,13.209-12.885,14.115-13.511
		C336.11,339.271,312.352,348.763,299.744,346.377z M277.592,364.042c-20.768-5.638-29.842-17.208-29.842-17.208
		c9.411,2.897,9.515-0.251,17.582,0.831c9.21,1.235,0.98,2.791,14.677,2.506c14.94-0.312,11.941-0.513,20.199-0.688
		c20.645-0.439,30.748-6.062,30.748-6.062S292.473,368.082,277.592,364.042z"/>
	<g display="inline">
		<path fill="#FCEDD6" d="M262.762,368.282c0,0,0.162,0.138,0.437,0.333c0.262,0.201,0.713,0.485,1.237,0.85
			c0.574,0.324,1.21,0.758,2.015,1.147c0.768,0.429,1.702,0.8,2.674,1.22c0.512,0.169,1.028,0.367,1.563,0.559
			c0.532,0.199,1.123,0.31,1.7,0.477c0.289,0.083,0.582,0.166,0.878,0.251c0.303,0.065,0.618,0.105,0.93,0.161
			c0.626,0.108,1.255,0.246,1.902,0.349c0.658,0.059,1.327,0.118,2.005,0.179c0.338,0.028,0.675,0.086,1.018,0.105l1.046-0.006
			c0.7,0.009,1.405,0.018,2.113,0.028c0.711-0.025,1.428-0.133,2.145-0.178c0.717-0.071,1.438-0.092,2.152-0.199
			c0.715-0.127,1.428-0.253,2.135-0.379c0.711-0.121,1.416-0.241,2.113-0.36c0.69-0.179,1.372-0.356,2.043-0.531
			c1.339-0.367,2.68-0.587,3.887-1.047c1.236-0.387,2.405-0.753,3.484-1.09c1.105-0.289,2.061-0.714,2.936-1.026
			c0.881-0.312,1.65-0.583,2.283-0.807c1.28-0.432,2.032-0.657,2.032-0.657l0.49,0.872c0,0-0.616,0.479-1.73,1.277
			c-0.564,0.392-1.249,0.867-2.035,1.413c-0.808,0.51-1.672,1.182-2.731,1.706c-1.051,0.549-2.189,1.145-3.394,1.774
			c-1.194,0.664-2.575,1.11-3.969,1.657c-0.704,0.26-1.42,0.524-2.145,0.791c-0.745,0.214-1.512,0.402-2.285,0.591
			c-0.774,0.188-1.555,0.377-2.338,0.568c-0.794,0.151-1.614,0.216-2.424,0.327c-0.814,0.093-1.623,0.212-2.441,0.252
			c-0.824-0.002-1.645-0.004-2.459-0.006c-0.407-0.008-0.812-0.015-1.216-0.023c-0.404-0.033-0.806-0.094-1.205-0.147
			c-0.796-0.12-1.581-0.238-2.354-0.355c-0.762-0.193-1.506-0.419-2.231-0.627c-0.36-0.114-0.719-0.213-1.066-0.338
			c-0.341-0.148-0.677-0.294-1.009-0.438c-0.652-0.314-1.308-0.551-1.89-0.907c-0.581-0.357-1.143-0.69-1.666-1.031
			c-0.522-0.342-0.98-0.744-1.423-1.097c-0.219-0.182-0.436-0.35-0.636-0.529c-0.189-0.194-0.373-0.382-0.55-0.564
			c-0.723-0.703-1.269-1.401-1.694-1.979c-0.41-0.603-0.703-1.074-0.883-1.443c-0.194-0.352-0.248-0.534-0.248-0.534
			L262.762,368.282z"/>
	</g>
	<g display="inline" opacity="0.5">
		<path fill="#FCEDD6" d="M263.075,404.377c0,0,0.142,0.079,0.359,0.16c0.198,0.086,0.574,0.215,0.973,0.371
			c0.416,0.154,0.931,0.3,1.499,0.457c0.267,0.095,0.593,0.144,0.903,0.219c0.305,0.085,0.628,0.16,0.982,0.204
			c0.668,0.149,1.412,0.233,2.171,0.331c0.366,0.078,0.787,0.064,1.183,0.103c0.4,0.037,0.792,0.107,1.225,0.088
			c0.842,0.033,1.692,0.092,2.595,0.061c0.448-0.02,0.887,0.034,1.345,0.012c0.46-0.03,0.92-0.059,1.382-0.059
			c0.917,0.013,1.862-0.102,2.794-0.152c0.466-0.041,0.933-0.008,1.396-0.073c0.462-0.062,0.926-0.091,1.382-0.129
			c0.911-0.084,1.813-0.086,2.67-0.198c0.858-0.085,1.687-0.134,2.465-0.161c0.783-0.004,1.49-0.105,2.141-0.118
			c0.644-0.037,1.229-0.019,1.707-0.026c0.475-0.011,0.872,0.032,1.134,0.036c0.269,0.021,0.412,0.032,0.412,0.032l0.373,0.928
			c0,0-0.101,0.101-0.291,0.289c-0.197,0.172-0.472,0.461-0.853,0.764c-0.379,0.307-0.833,0.705-1.381,1.105
			c-0.551,0.395-1.158,0.883-1.891,1.267c-0.723,0.408-1.52,0.831-2.381,1.244c-0.848,0.446-1.809,0.772-2.807,1.098
			c-0.994,0.344-2.038,0.652-3.15,0.835c-1.105,0.194-2.22,0.419-3.392,0.428c-1.156,0.073-2.32,0.086-3.485-0.071
			c-0.579-0.08-1.149-0.085-1.715-0.23c-0.563-0.137-1.119-0.272-1.666-0.404c-1.082-0.3-2.11-0.745-3.041-1.201
			c-0.453-0.265-0.894-0.523-1.32-0.772c-0.414-0.266-0.788-0.588-1.15-0.86c-0.717-0.562-1.291-1.209-1.762-1.776
			c-0.224-0.306-0.434-0.579-0.608-0.846c-0.157-0.284-0.302-0.545-0.432-0.781c-0.255-0.477-0.377-0.867-0.478-1.166
			c-0.099-0.292-0.102-0.43-0.102-0.43L263.075,404.377z"/>
	</g>
</g>
<g id="lips__x26__chin_copy">
	<g>
		<path fill="#FCEDD6" d="M262.762,368.282c0,0,0.162,0.138,0.437,0.333c0.262,0.201,0.713,0.485,1.237,0.85
			c0.574,0.324,1.21,0.758,2.015,1.147c0.768,0.429,1.702,0.8,2.674,1.22c0.512,0.169,1.028,0.367,1.563,0.559
			c0.532,0.199,1.123,0.31,1.7,0.477c0.289,0.083,0.582,0.166,0.878,0.251c0.303,0.065,0.618,0.105,0.93,0.161
			c0.626,0.108,1.255,0.246,1.902,0.349c0.658,0.059,1.327,0.118,2.005,0.179c0.338,0.028,0.675,0.086,1.018,0.105l1.046-0.006
			c0.7,0.009,1.405,0.018,2.113,0.028c0.711-0.025,1.428-0.133,2.145-0.178c0.717-0.071,1.438-0.092,2.152-0.199
			c0.715-0.127,1.428-0.253,2.135-0.379c0.711-0.121,1.416-0.241,2.113-0.36c0.69-0.179,1.372-0.356,2.043-0.531
			c1.339-0.367,2.68-0.587,3.887-1.047c1.236-0.387,2.405-0.753,3.484-1.09c1.105-0.289,2.061-0.714,2.936-1.026
			c0.881-0.312,1.65-0.583,2.283-0.807c1.28-0.432,2.032-0.657,2.032-0.657l0.49,0.872c0,0-0.616,0.479-1.73,1.277
			c-0.564,0.392-1.249,0.867-2.035,1.413c-0.808,0.51-1.672,1.182-2.731,1.706c-1.051,0.549-2.189,1.145-3.394,1.774
			c-1.194,0.664-2.575,1.11-3.969,1.657c-0.704,0.26-1.42,0.524-2.145,0.791c-0.745,0.214-1.512,0.402-2.285,0.591
			c-0.774,0.188-1.555,0.377-2.338,0.568c-0.794,0.151-1.614,0.216-2.424,0.327c-0.814,0.093-1.623,0.212-2.441,0.252
			c-0.824-0.002-1.645-0.004-2.459-0.006c-0.407-0.008-0.812-0.015-1.216-0.023c-0.404-0.033-0.806-0.094-1.205-0.147
			c-0.796-0.12-1.581-0.238-2.354-0.355c-0.762-0.193-1.506-0.419-2.231-0.627c-0.36-0.114-0.719-0.213-1.066-0.338
			c-0.341-0.148-0.677-0.294-1.009-0.438c-0.652-0.314-1.308-0.551-1.89-0.907c-0.581-0.357-1.143-0.69-1.666-1.031
			c-0.522-0.342-0.98-0.744-1.423-1.097c-0.219-0.182-0.436-0.35-0.636-0.529c-0.189-0.194-0.373-0.382-0.55-0.564
			c-0.723-0.703-1.269-1.401-1.694-1.979c-0.41-0.603-0.703-1.074-0.883-1.443c-0.194-0.352-0.248-0.534-0.248-0.534
			L262.762,368.282z"/>
	</g>
	<g opacity="0.5">
		<path fill="#FCEDD6" d="M263.075,404.377c0,0,0.142,0.079,0.359,0.16c0.198,0.086,0.574,0.215,0.973,0.371
			c0.416,0.154,0.931,0.3,1.499,0.457c0.267,0.095,0.593,0.144,0.903,0.219c0.305,0.085,0.628,0.16,0.982,0.204
			c0.668,0.149,1.412,0.233,2.171,0.331c0.366,0.078,0.787,0.064,1.183,0.103c0.4,0.037,0.792,0.107,1.225,0.088
			c0.842,0.033,1.692,0.092,2.595,0.061c0.448-0.02,0.887,0.034,1.345,0.012c0.46-0.03,0.92-0.059,1.382-0.059
			c0.917,0.013,1.862-0.102,2.794-0.152c0.466-0.041,0.933-0.008,1.396-0.073c0.462-0.062,0.926-0.091,1.382-0.129
			c0.911-0.084,1.813-0.086,2.67-0.198c0.858-0.085,1.687-0.134,2.465-0.161c0.783-0.004,1.49-0.105,2.141-0.118
			c0.644-0.037,1.229-0.019,1.707-0.026c0.475-0.011,0.872,0.032,1.134,0.036c0.269,0.021,0.412,0.032,0.412,0.032l0.373,0.928
			c0,0-0.101,0.101-0.291,0.289c-0.197,0.172-0.472,0.461-0.853,0.764c-0.379,0.307-0.833,0.705-1.381,1.105
			c-0.551,0.395-1.158,0.883-1.891,1.267c-0.723,0.408-1.52,0.831-2.381,1.244c-0.848,0.446-1.809,0.772-2.807,1.098
			c-0.994,0.344-2.038,0.652-3.15,0.835c-1.105,0.194-2.22,0.419-3.392,0.428c-1.156,0.073-2.32,0.086-3.485-0.071
			c-0.579-0.08-1.149-0.085-1.715-0.23c-0.563-0.137-1.119-0.272-1.666-0.404c-1.082-0.3-2.11-0.745-3.041-1.201
			c-0.453-0.265-0.894-0.523-1.32-0.772c-0.414-0.266-0.788-0.588-1.15-0.86c-0.717-0.562-1.291-1.209-1.762-1.776
			c-0.224-0.306-0.434-0.579-0.608-0.846c-0.157-0.284-0.302-0.545-0.432-0.781c-0.255-0.477-0.377-0.867-0.478-1.166
			c-0.099-0.292-0.102-0.43-0.102-0.43L263.075,404.377z"/>
	</g>
	<path fill="#FF809E" d="M248.999,346.791c0,0,18.857-1.124,29.635,1.741c9.405,2.5,2.429,2.212,8.218,0.468
		c13.759-4.146,34.587-1.906,44.481-6.504c0,0-29.544,24.646-45.37,25.222C262.358,368.576,257.033,352.354,248.999,346.791z"/>
	<g opacity="0.1">
		<path d="M262.453,350.663c0,0,0.552,0.521,1.631,1.287c1.088,0.751,2.725,1.707,4.806,2.563c1.041,0.429,2.207,0.786,3.444,1.134
			c1.241,0.339,2.575,0.597,3.963,0.805c1.39,0.201,2.84,0.308,4.318,0.368c1.474,0.036,2.995,0.054,4.485-0.08
			c1.44-0.163,2.933-0.488,4.363-0.875c1.438-0.392,2.841-0.846,4.2-1.298c2.717-0.906,5.244-1.83,7.457-2.501
			c2.208-0.683,4.09-1.152,5.44-1.322c0.673-0.094,1.362-0.117,1.726-0.128c0.365,0.003,0.713,0.004,0.713,0.004v0.25
			c0,0-0.343,0.013-0.696,0.038c-0.353,0.038-0.947,0.101-1.596,0.244c-1.301,0.261-3.164,0.813-5.308,1.619
			c-2.143,0.834-4.663,1.806-7.343,2.848c-1.35,0.511-2.774,1.005-4.236,1.455c-1.472,0.439-2.974,0.836-4.582,1.039
			c-1.562,0.165-3.115,0.282-4.659,0.238c-1.54-0.017-3.057-0.163-4.51-0.393c-1.455-0.221-2.841-0.568-4.128-0.973
			c-1.292-0.395-2.464-0.916-3.52-1.433c-2.119-1.033-3.697-2.224-4.696-3.154c-1.018-0.914-1.463-1.572-1.463-1.572
			L262.453,350.663z"/>
	</g>
	<g opacity="0.3">
		<path fill="#FFFFFF" d="M299.299,355.247c0,0-0.276,0.126-0.764,0.315c-0.245,0.092-0.541,0.208-0.884,0.32
			c-0.33,0.132-0.758,0.218-1.126,0.402c-0.372,0.184-0.765,0.373-1.181,0.543c-0.412,0.229-0.795,0.496-1.267,0.763
			c-0.492,0.299-0.97,0.649-1.603,0.862c-0.3,0.119-0.604,0.251-0.909,0.357l-0.919,0.202c-0.616,0.1-1.245,0.268-1.832,0.274
			c-0.593,0.042-1.18,0.042-1.744,0.064c-1.135,0.058-2.167-0.069-3.058-0.168c-1.779-0.197-2.95-0.491-2.95-0.491l0.002-0.25
			c0,0,1.176-0.326,2.917-0.57c0.436-0.063,0.906-0.133,1.404-0.179c0.502-0.034,1.011-0.159,1.544-0.221
			c0.532-0.07,1.078-0.164,1.636-0.218c0.574-0.026,1.079-0.199,1.618-0.303l0.804-0.146c0.248-0.078,0.482-0.175,0.722-0.258
			c0.472-0.145,0.971-0.383,1.444-0.614c0.506-0.233,1.064-0.473,1.577-0.635c0.545-0.133,1.061-0.232,1.529-0.312
			c0.467-0.097,0.859-0.041,1.228-0.056c0.362-0.004,0.681,0.011,0.943,0.02c0.525,0.023,0.828,0.054,0.828,0.054L299.299,355.247z"
			/>
	</g>
	<g opacity="0.5">
		<path fill="#FFFFFF" d="M354.603,344.977c0,0-3.889,2.195-9.724,5.488c-1.433,0.823-2.986,1.714-4.629,2.656
			c-1.628,0.955-3.341,1.955-5.082,3.026c-1.754,1.051-3.52,2.197-5.319,3.339c-1.77,1.186-3.577,2.366-5.309,3.638
			c-0.877,0.621-1.75,1.247-2.585,1.908c-0.857,0.638-1.689,1.292-2.502,1.956c-0.831,0.649-1.598,1.342-2.391,1.999
			c-0.783,0.666-1.5,1.373-2.255,2.028c-0.711,0.694-1.41,1.376-2.095,2.044c-0.652,0.698-1.29,1.38-1.911,2.044
			c-0.591,0.692-1.166,1.365-1.722,2.017c-0.527,0.678-1.036,1.333-1.525,1.962c-0.454,0.651-0.874,1.289-1.308,1.884
			c-0.431,0.597-0.753,1.206-1.108,1.763c-0.172,0.282-0.338,0.555-0.499,0.818c-0.143,0.272-0.28,0.534-0.413,0.786
			c-0.273,0.508-0.524,0.975-0.75,1.396c-0.406,0.876-0.725,1.564-0.943,2.033c-0.229,0.476-0.35,0.73-0.35,0.73l-0.98-0.2
			c0,0,0.014-0.288,0.04-0.827c0.052-0.535,0.051-1.348,0.203-2.356c0.091-0.503,0.192-1.06,0.301-1.666
			c0.056-0.305,0.112-0.625,0.187-0.952c0.094-0.32,0.191-0.651,0.292-0.993c0.214-0.68,0.394-1.435,0.68-2.187
			c0.281-0.754,0.61-1.537,0.944-2.365c0.397-0.794,0.81-1.62,1.238-2.476c0.46-0.837,0.994-1.666,1.518-2.543
			c0.552-0.852,1.177-1.683,1.791-2.56c0.653-0.836,1.339-1.681,2.053-2.523c1.457-1.652,3.045-3.288,4.765-4.812
			c1.704-1.547,3.533-2.991,5.411-4.351c3.762-2.719,7.77-5.023,11.646-6.881c1.932-0.943,3.848-1.744,5.672-2.472
			c1.832-0.709,3.583-1.324,5.217-1.835c3.272-1.013,6.053-1.655,8.023-2.011c1.964-0.365,3.121-0.459,3.121-0.459L354.603,344.977z
			"/>
	</g>
</g>
<g id="Layer_7">
	<path fill="#423412" d="M356.96,44.5c0,0-26.167,52.864,6.509,73.82s53.154,121.45,58.314,143.024
		c1.53,6.397,17.101-32.809,14.573-52.424C430.358,162.381,401.581,44.961,356.96,44.5z"/>
</g>
<g id="eyes">
	<path fill="#FFFFFF" d="M308.692,246.163c0,0,23.24-32.891,67.933-8.191c0,0-2.686,20.617-46.958,6.238
		C320.459,241.219,308.692,246.163,308.692,246.163z"/>
	<g>
		<circle fill="#BBDDFF" cx="349.99" cy="238.357" r="10.701"/>
		<circle cx="350.384" cy="237.003" r="6.577"/>
		<circle fill="#FFFFFF" cx="352.555" cy="235.585" r="1.899"/>
	</g>
	<path fill="#423412" d="M332.887,202.222c46.28-13.243,53.967,13.869,53.967,13.869s-3.136-12.367-22.915-15.712
		c-24.831-4.199-59.305,18.582-55.545,10.604C311.915,203.51,308.375,209.235,332.887,202.222z"/>
	<path fill="#423412" d="M246.841,203.899c-47.252-9.189-52.564,18.487-52.564,18.487s2.054-12.592,21.47-17.636
		c24.375-6.332,60.691,13.381,56.255,5.758C267.846,203.367,271.867,208.766,246.841,203.899z"/>
	<g>
		<path fill="#FCEDD6" d="M377.971,236.27c0,0,0.151,0.294,0.338,0.864c0.184,0.571,0.43,1.428,0.52,2.572
			c0.1,1.138,0.051,2.587-0.501,4.179c-0.511,1.601-1.647,3.266-3.255,4.595c-1.598,1.352-3.65,2.296-5.826,2.955
			c-2.184,0.684-4.541,0.983-6.947,1.157c-2.41,0.172-4.884,0.072-7.37-0.109c-2.488-0.176-4.984-0.535-7.454-0.98
			c-2.473-0.427-4.919-0.955-7.295-1.582c-2.381-0.601-4.705-1.253-6.921-1.983c-2.223-0.708-4.28-1.271-6.313-1.768
			c-2.016-0.488-3.944-0.813-5.729-1.052c-3.571-0.46-6.591-0.322-8.618,0.158c-1.019,0.222-1.786,0.517-2.295,0.752
			c-0.262,0.124-0.463,0.219-0.599,0.282c-0.092,0.03-0.108,0.077-0.314,0.08c-0.181-0.008-0.259-0.271-0.246-0.278
			c-0.007-0.044-0.006-0.113-0.006-0.113h0.5c0,0,0.003,0.035-0.002,0.01c0.012,0.011-0.05-0.148-0.193-0.15
			c-0.129,0.005-0.042,0.008-0.004-0.033c0.122-0.088,0.302-0.212,0.537-0.382c0.494-0.335,1.26-0.783,2.303-1.198
			c1.045-0.407,2.362-0.769,3.898-1.018c1.537-0.241,3.288-0.347,5.19-0.325c1.904,0.014,3.952,0.217,6.097,0.52
			c1.072,0.156,2.171,0.333,3.283,0.558c1.1,0.24,2.224,0.486,3.367,0.735c2.242,0.461,4.559,0.938,6.913,1.422
			c2.357,0.441,4.744,0.888,7.133,1.272c2.391,0.368,4.783,0.672,7.129,0.92c2.348,0.233,4.653,0.309,6.863,0.325
			c2.209-0.006,4.312-0.224,6.237-0.585c1.928-0.366,3.629-1.022,5.016-1.861c1.378-0.857,2.383-1.971,3.031-3.141
			c0.645-1.174,0.936-2.377,1.075-3.386c0.124-1.014,0.112-1.844,0.073-2.404c-0.041-0.563-0.091-0.854-0.091-0.854L377.971,236.27z
			"/>
	</g>
	<path d="M309.391,246.095c0,0,18.689-30.97,59.56-9.775c9.731,5.046,17.109-0.008,17.109-0.008s-1.343-0.563-4.881-1.186
		C373.784,233.824,331.431,209.401,309.391,246.095z"/>
	<path fill="#FFFFFF" d="M264.709,246.163c0,0-23.24-32.891-67.933-8.191c0,0,2.686,20.617,46.958,6.238
		C252.943,241.219,264.709,246.163,264.709,246.163z"/>
	<g>
		<path fill="#BBDDFF" d="M248.999,238.357c0-5.91-4.791-10.701-10.701-10.701c-5.91,0-10.701,4.791-10.701,10.701
			c0,5.91,4.514,11.346,10.095,9.401C240.565,246.757,248.999,244.267,248.999,238.357z"/>
		<circle cx="237.692" cy="237.003" r="6.577"/>
		<circle fill="#FFFFFF" cx="239.863" cy="235.585" r="1.899"/>
	</g>
	<g>
		<path fill="#FCEDD6" d="M195.905,236.426c0,0-0.049,0.291-0.091,0.854c-0.039,0.56-0.051,1.39,0.073,2.404
			c0.139,1.009,0.43,2.212,1.075,3.386c0.647,1.17,1.653,2.284,3.031,3.141c1.387,0.839,3.088,1.495,5.016,1.861
			c1.924,0.361,4.027,0.579,6.237,0.585c2.209-0.016,4.515-0.092,6.863-0.325c2.346-0.249,4.737-0.552,7.129-0.92
			c2.389-0.384,4.776-0.831,7.133-1.272c2.354-0.484,4.671-0.961,6.913-1.422c1.143-0.25,2.267-0.495,3.367-0.735
			c1.113-0.225,2.211-0.402,3.283-0.558c2.145-0.302,4.194-0.505,6.097-0.519c1.902-0.022,3.653,0.085,5.19,0.326
			c1.536,0.248,2.853,0.612,3.898,1.019c1.043,0.415,1.809,0.866,2.303,1.201c0.235,0.17,0.416,0.3,0.537,0.388
			c0.038,0.042,0.125,0.05-0.004,0.045c-0.143,0.002-0.205,0.138-0.193,0.127c-0.005,0.025-0.002-0.01-0.002-0.01h0.5
			c0,0,0.001,0.069-0.006,0.113c0.013,0.007-0.065,0.246-0.246,0.254c-0.206-0.003-0.222-0.039-0.314-0.069
			c-0.135-0.064-0.337-0.153-0.599-0.277c-0.509-0.235-1.277-0.527-2.295-0.749c-2.027-0.479-5.046-0.616-8.618-0.156
			c-1.785,0.238-3.713,0.564-5.729,1.052c-2.033,0.497-4.09,1.061-6.313,1.769c-2.215,0.73-4.539,1.383-6.921,1.983
			c-2.376,0.627-4.822,1.156-7.295,1.583c-2.469,0.445-4.966,0.804-7.454,0.98c-2.486,0.181-4.96,0.281-7.37,0.109
			c-2.406-0.174-4.763-0.473-6.947-1.157c-2.176-0.659-4.228-1.603-5.826-2.955c-1.607-1.33-2.743-2.994-3.255-4.595
			c-0.552-1.592-0.601-3.042-0.501-4.179c0.09-1.144,0.336-2.001,0.52-2.572c0.187-0.57,0.338-0.864,0.338-0.864L195.905,236.426z"
			/>
	</g>
	<path d="M264.01,246.095c0,0-18.689-30.97-59.561-9.775c-9.731,5.046-17.109-0.008-17.109-0.008s1.343-0.563,4.881-1.186
		C199.617,233.824,241.97,209.401,264.01,246.095z"/>
</g>
<g id="specs">
	<g>
		<path fill="#FCEDD6" d="M295.693,237.413c0,0-0.396-0.158-1.189-0.392c-0.788-0.21-1.955-0.515-3.386-0.546
			c-1.421-0.048-3.075,0.2-4.563,1.056c-1.5,0.832-2.826,2.35-3.947,4.381c-1.092,2.057-2.009,4.572-2.682,7.399
			c-0.088,0.352-0.176,0.707-0.265,1.064c-0.121,0.431-0.243,0.864-0.365,1.3c-0.112,0.386-0.224,0.775-0.337,1.165
			c-0.181,0.473-0.375,0.947-0.577,1.42c-0.795,1.906-1.818,3.485-3.044,5.086c-2.524,3.072-5.791,5.517-9.296,7.279
			c-3.512,1.774-7.243,2.937-10.978,3.745c-7.482,1.613-14.999,1.83-21.93,1.503c-3.469-0.147-6.805-0.443-9.943-0.858
			c-3.138-0.408-6.094-0.832-8.794-1.376c-2.704-0.513-5.168-1.04-7.337-1.565c-2.167-0.536-4.048-1.02-5.586-1.459
			c-3.077-0.877-4.808-1.46-4.808-1.46l0.221-0.975c0,0,1.801,0.224,4.953,0.616c1.571,0.203,3.482,0.423,5.672,0.642
			c2.191,0.215,4.655,0.482,7.35,0.66c2.694,0.187,5.605,0.382,8.682,0.485c3.077,0.105,6.316,0.107,9.649,0.058
			c3.334-0.061,6.764-0.284,10.201-0.677c3.438-0.377,6.886-0.957,10.219-1.786c3.32-0.854,6.55-1.942,9.391-3.454
			c2.831-1.517,5.29-3.386,7.076-5.597c0.392-0.586,0.849-1.124,1.194-1.721c0.335-0.596,0.731-1.197,0.933-1.742
			c0.124-0.278,0.254-0.551,0.395-0.82c0.13-0.382,0.259-0.761,0.387-1.138c0.111-0.329,0.222-0.656,0.332-0.981
			c0.123-0.404,0.245-0.806,0.367-1.204c1.013-3.172,2.374-6.166,4.251-8.68c0.942-1.257,2.024-2.372,3.209-3.294
			c1.193-0.911,2.521-1.588,3.83-1.972c2.65-0.796,5.027-0.393,6.69,0.175c1.682,0.62,2.817,1.352,3.536,1.917
			c0.72,0.546,1.06,0.926,1.06,0.926L295.693,237.413z"/>
	</g>
	<g>
		<path fill="#FCEDD6" d="M397.764,236.377c0,0,0.257,1.666,0.179,4.585c-0.075,1.452-0.183,3.231-0.531,5.25
			c-0.344,2.018-0.872,4.294-1.762,6.71c-0.877,2.418-2.123,4.984-3.912,7.474c-1.798,2.466-4.188,4.868-7.209,6.589
			c-1.495,0.874-3.13,1.568-4.826,2.089c-0.851,0.247-1.715,0.469-2.592,0.621c-0.857,0.167-1.812,0.27-2.556,0.348
			c-3.223,0.356-6.538,0.564-9.8,0.637c-3.273,0.086-6.537,0.091-9.743,0.041c-3.207-0.074-6.356-0.228-9.399-0.404
			c-3.043-0.166-5.979-0.417-8.758-0.693c-2.779-0.275-5.404-0.553-7.819-0.895c-4.834-0.641-8.84-1.365-11.63-2.003
			c-1.394-0.328-2.484-0.617-3.226-0.855c-0.74-0.234-1.133-0.396-1.133-0.396l0.291-0.957c0,0,1.527,0.318,4.331,0.52
			c2.789,0.24,6.805,0.426,11.621,0.572c2.408,0.051,5.017,0.105,7.777,0.164c2.758,0.01,5.666,0.021,8.674,0.032
			c3.006-0.005,6.11-0.066,9.256-0.158c3.147-0.068,6.338-0.192,9.513-0.394c3.186-0.22,6.313-0.47,9.403-0.833
			c0.833-0.099,1.452-0.174,2.14-0.315c0.674-0.124,1.326-0.305,1.968-0.497c1.273-0.412,2.483-0.94,3.591-1.61
			c4.47-2.651,7.469-7.023,9.58-11.028c1.05-2.02,1.904-3.975,2.596-5.749c0.688-1.775,1.273-3.36,1.68-4.689
			c0.455-1.322,0.748-2.384,0.975-3.106c0.209-0.723,0.321-1.109,0.321-1.109L397.764,236.377z"/>
	</g>
	<path d="M294.533,223.618c12.82,37.217,4.588,43.509,65.526,43.509c41.399,0,38.936-45.454,38.936-45.454
		C348.664,206.482,294.533,223.618,294.533,223.618z M365.775,264.113c-19.942,0.738-30.516,0.535-43.867-2.582
		c-14.464-3.377-18.397-14.96-19.849-32.199c-0.808-9.587,55.545-16.444,88.146-3.971
		C400.755,229.398,387.166,263.321,365.775,264.113z"/>
	<path d="M179.232,221.673c0,0-2.463,45.454,38.936,45.454c60.939,0,52.19-6.721,65.011-43.938
		C283.178,223.189,229.564,206.482,179.232,221.673z M188.023,225.361c32.601-12.473,88.954-5.616,88.146,3.971
		c-1.452,17.238-5.385,28.822-19.849,32.199c-13.351,3.117-23.925,3.32-43.867,2.582
		C191.061,263.321,177.472,229.398,188.023,225.361z"/>
	<path d="M294.533,223.618l6.953,19.001c0,0-3.385-9.774-12.529-9.774c-6.951,0-12.529,8.366-12.529,8.366l6.75-18.021
		C283.178,223.189,287.583,225.311,294.533,223.618z"/>
	<path d="M399.02,223l9.489,0.189c0,0,7.956-6.182,12.706-8.963c17.007-9.956,14.798-7.117,12.993,3.077
		c-0.484,2.732,0-4.739-12.259,3.355c-5.945,3.925-4.855,6.997-13.246,13.341h-12.212L399.02,223z"/>
</g>
<g id="ears">
	<path fill="#FFF7E6" d="M417.751,245.826c0,0-0.471-8.323,2.64-20.699c2.552-10.153,11.546-13.147,13.369,7.896
		c3.517,40.601-14.936,31.974-10.551,54.981c3.214,16.859,5.498,22.322-18.147,16.156L417.751,245.826z"/>
	<path fill="#FCEDD6" d="M411.575,288.847c-0.691,5.455,8.707,7.787,8.06-5.451c-0.884-18.066,10.403-12.82,11.234-44.487
		c0.431-16.413-5.809-21.19-7.337-11.429C423.532,227.48,414.981,261.96,411.575,288.847z"/>
	<path fill="#FFF7E6" d="M177.946,245.977c0,0,0.923-8.285-1.509-20.812c-1.995-10.277-10.814-13.756-13.779,7.157
		c-5.722,40.35,13.174,32.739,7.542,55.474c-4.127,16.659-6.705,21.99,17.24,17.12L177.946,245.977z"/>
	<path fill="#FCEDD6" d="M181.771,289.271c0.393,5.484-9.118,7.301-7.751-5.882c1.866-17.991-9.69-13.367-8.796-45.033
		c0.463-16.412,6.953-20.842,7.949-11.013C173.172,227.344,179.834,262.238,181.771,289.271z"/>
</g>
<g id="earrings">
	<g>
		<path fill="#BBDDFF" d="M417.067,299.749c0,0,17.174,28.726,2.569,37.278c-16.217,9.495-20.104-7.899-11.313-16.339
			S417.067,299.749,417.067,299.749z"/>
		<path opacity="0.2" d="M423.635,328.289c-1.253,6.518-8.763,8.674-8.763,8.674s-1.247-2.838,4.763-5.588
			c5.329-2.438,2.329-8.303,2.329-8.303S424.307,324.796,423.635,328.289z"/>
		<path fill="#FFFFFF" d="M418.939,310.77c0.421,2.638-5.993,7.736-5.993,7.736s0.798-0.703,2.45-3.867
			c1.152-2.206,2.182-5.577,2.568-6.566C417.964,308.072,418.518,308.132,418.939,310.77z"/>
		<path fill="#FFFFFF" d="M405.044,332.268c0,0-0.108-0.629,0.331-3.643s2.847-5.626,2.847-5.626s-0.822,1.902-1.018,3.59
			c-0.181,1.558-0.157,1.806-0.141,2.973S407.037,331.008,405.044,332.268z"/>
	</g>
	<g>
		<path fill="#BBDDFF" d="M176.067,299.749c0,0,17.174,28.726,2.569,37.278c-16.217,9.495-20.104-7.899-11.313-16.339
			S176.067,299.749,176.067,299.749z"/>
		<path opacity="0.2" d="M182.635,328.289c-1.253,6.518-8.763,8.674-8.763,8.674s-1.247-2.838,4.763-5.588
			c5.329-2.438,2.329-8.303,2.329-8.303S183.307,324.796,182.635,328.289z"/>
		<path fill="#FFFFFF" d="M177.939,310.77c0.421,2.638-5.993,7.736-5.993,7.736s0.798-0.703,2.45-3.867
			c1.152-2.206,2.182-5.577,2.568-6.566C176.964,308.072,177.518,308.132,177.939,310.77z"/>
		<path fill="#FFFFFF" d="M164.044,332.268c0,0-0.108-0.629,0.331-3.643s2.847-5.626,2.847-5.626s-0.822,1.902-1.018,3.59
			c-0.181,1.558-0.157,1.806-0.141,2.973S166.037,331.008,164.044,332.268z"/>
	</g>
</g>
<g id="Layer_3">
	<path fill="#423412" d="M290.071,163.194c0,0-36.58,97.445-133.174,108.656c0,0-26.449-272.502,195.529-227.875
		C352.426,43.974,408.702,135.509,290.071,163.194z"/>
	<path opacity="0.6" fill="#FCFCFC" d="M391.019,149.667c0,0,11.269,20.463,11.315,29.333c0.045,8.871,0.062-21.667,2.729-15.333
		c2.667,6.333,8.938,8,8.938,8S412.856,156,417.095,161s8.905,8.333,8.905,8.333s-7.144-25-8.905-28s-3.972,6.903-3.845,9.903
		s-8.188-5.57-8.188-5.57s0.438,9.012-3.562,9.776C401.5,155.443,396.371,152.807,391.019,149.667z"/>
	<g opacity="0.6">
		<path fill="#FCFCFC" d="M357.741,54.039c0,0,0.427,1.065,1.082,3.101c0.65,2.039,1.544,5.054,2.385,8.972
			c0.816,3.919,1.607,8.74,1.953,14.345c0.313,5.599,0.195,11.991-0.942,18.891c-1.179,6.878-3.536,14.238-7.49,21.333
			c-3.934,7.092-9.617,13.79-16.65,19.192c-6.991,5.474-15.208,9.681-23.858,12.817c-8.668,3.12-17.815,5.082-26.938,6.473
			c-9.014,1.32-18.182,2.337-27.099,3.129c-8.936,0.827-17.709,1.379-26.021,2.304c-8.304,0.953-16.147,2.327-23.113,4.97
			c-3.468,1.339-6.745,2.883-9.816,4.604c-1.493,0.933-3.012,1.775-4.398,2.78c-0.702,0.488-1.411,0.951-2.09,1.447
			c-0.67,0.511-1.333,1.017-1.989,1.518c-5.264,4.012-9.687,8.314-13.47,12.264c-0.966,0.97-1.88,1.932-2.735,2.888
			c-0.867,0.947-1.702,1.86-2.504,2.737c-1.565,1.799-3.002,3.451-4.301,4.943c-2.551,3.031-4.554,5.427-5.892,7.083
			c-1.359,1.644-2.083,2.52-2.083,2.52l-0.411-0.285c0,0,0.587-0.976,1.686-2.807c0.557-0.912,1.244-2.037,2.052-3.36
			c0.848-1.299,1.822-2.791,2.914-4.463c1.103-1.666,2.382-3.475,3.774-5.447c0.724-0.968,1.477-1.975,2.258-3.019
			c0.771-1.054,1.601-2.123,2.487-3.209c3.506-4.363,7.713-9.15,12.974-13.794c0.667-0.57,1.341-1.147,2.021-1.729
			c0.693-0.569,1.425-1.109,2.147-1.673c1.426-1.155,3.012-2.165,4.576-3.262c3.224-2.057,6.719-3.981,10.496-5.546
			c7.564-3.123,15.991-5.015,24.572-6.078c4.293-0.562,8.643-0.981,13.024-1.358c4.362-0.36,8.778-0.724,13.228-1.091
			c8.893-0.73,17.789-1.653,26.752-2.901l1.687-0.231l0.422-0.058l0.385-0.066l0.82-0.143l3.278-0.571
			c2.185-0.373,4.387-0.678,6.518-1.231c2.14-0.516,4.307-0.941,6.415-1.526c2.093-0.63,4.18-1.259,6.259-1.885
			c8.202-2.795,15.889-6.555,22.516-11.327c6.666-4.735,11.991-10.711,15.939-17.067c3.962-6.364,6.506-13.142,7.953-19.613
			c1.477-6.477,1.976-12.631,2.003-18.083c0.048-5.46-0.362-10.237-0.883-14.145c-0.506-3.913-1.105-6.967-1.572-9.034
			c-0.468-2.07-0.793-3.149-0.793-3.149L357.741,54.039z"/>
	</g>
	<g opacity="0.6">
		<path fill="#FCFCFC" d="M281.453,165.65c0,0-0.576,1.971-1.912,5.29c-0.651,1.669-1.533,3.655-2.59,5.915
			c-1.04,2.271-2.337,4.771-3.814,7.47c-1.519,2.672-3.155,5.587-5.105,8.531c-0.941,1.496-2,2.969-3.034,4.512
			c-1.095,1.497-2.166,3.067-3.351,4.591c-0.587,0.767-1.178,1.541-1.775,2.32c-0.609,0.769-1.25,1.521-1.88,2.291
			c-1.248,1.55-2.596,3.047-3.935,4.576c-1.344,1.524-2.773,2.993-4.174,4.502c-1.464,1.445-2.889,2.948-4.415,4.343
			c-1.53,1.391-3.018,2.833-4.604,4.151c-1.558,1.352-3.125,2.682-4.745,3.922c-0.801,0.631-1.6,1.26-2.394,1.885
			c-0.817,0.596-1.629,1.19-2.437,1.779c-0.811,0.586-1.617,1.168-2.417,1.747c-0.823,0.545-1.64,1.087-2.451,1.624
			c-0.811,0.537-1.615,1.069-2.412,1.596c-0.817,0.496-1.626,0.987-2.426,1.472c-1.597,0.978-3.165,1.927-4.747,2.752
			c-1.576,0.834-3.071,1.721-4.588,2.44c-1.507,0.738-2.964,1.451-4.362,2.136c-1.415,0.648-2.806,1.193-4.132,1.697
			c-1.329,0.497-2.595,0.953-3.831,1.257c-2.46,0.636-4.609,1.149-6.451,1.327c-1.829,0.215-3.296,0.255-4.293,0.274
			c-1.003,0.002-1.546-0.039-1.546-0.039l-0.147-0.478c0,0,0.42-0.361,1.223-0.959c0.809-0.581,1.992-1.421,3.534-2.325
			c1.549-0.888,3.377-2.063,5.554-3.15c1.082-0.554,2.233-1.144,3.446-1.766c1.212-0.617,2.522-1.182,3.867-1.818
			c1.34-0.648,2.736-1.322,4.18-2.02c1.455-0.679,2.886-1.522,4.398-2.31c1.516-0.782,3.02-1.681,4.566-2.586
			c0.773-0.452,1.555-0.909,2.344-1.371c0.77-0.493,1.547-0.99,2.331-1.492c0.784-0.502,1.575-1.007,2.372-1.517
			c0.778-0.537,1.562-1.079,2.35-1.623c0.789-0.545,1.583-1.092,2.381-1.643c0.777-0.58,1.558-1.163,2.342-1.748
			c1.587-1.147,3.119-2.391,4.668-3.628c1.573-1.209,3.051-2.544,4.574-3.829c1.511-1.298,2.958-2.669,4.446-3.989
			c1.424-1.384,2.879-2.731,4.253-4.137c2.771-2.791,5.381-5.656,7.851-8.484c1.257-1.397,2.404-2.845,3.576-4.225
			c1.111-1.426,2.249-2.788,3.269-4.179c2.102-2.739,4-5.399,5.713-7.888c1.669-2.515,3.192-4.835,4.471-6.936
			c1.29-2.095,2.346-3.965,3.212-5.509c1.723-3.096,2.576-4.931,2.576-4.931L281.453,165.65z"/>
	</g>
</g>
<g id="bun">
	<path fill="#423412" d="M251.425,62.953c0,0-42.201-19.465-20.632-36.641s123.419-17.436,150.048,0
		c21.694,14.204-23.914,37.103-23.914,37.103L251.425,62.953z"/>
	<g opacity="0.6">
		<path fill="#FCFCFC" d="M230.802,38.225c0,0,0.05,0.081,0.144,0.191c0.089,0.11,0.235,0.306,0.432,0.533
			c0.378,0.47,0.995,1.116,1.792,1.869c0.819,0.738,1.834,1.572,3.071,2.395c1.248,0.812,2.703,1.621,4.362,2.366
			c0.418,0.179,0.846,0.362,1.281,0.549c0.447,0.166,0.902,0.335,1.366,0.507c0.456,0.183,0.946,0.323,1.434,0.481
			c0.245,0.078,0.491,0.157,0.74,0.236l0.187,0.06l0.093,0.03l0.047,0.015c0.041,0.011-0.275-0.072-0.129-0.034l0.026,0.006
			l0.419,0.098c0.271,0.059,0.585,0.145,0.825,0.184l0.62,0.067l0.316,0.041l0.39,0.016l0.787,0.037
			c0.541,0.003,1.1-0.013,1.662-0.025c0.575-0.041,1.156-0.082,1.742-0.124c2.366-0.22,4.863-0.63,7.408-1.109
			c2.553-0.455,5.158-0.986,7.772-1.533c2.614-0.545,5.234-1.123,7.841-1.614c2.604-0.503,5.175-0.987,7.683-1.4
			c5.022-0.778,9.784-1.316,13.917-1.279c2.064,0.015,3.965,0.105,5.64,0.378c1.674,0.225,3.122,0.597,4.28,0.983
			c1.152,0.416,2.037,0.791,2.602,1.134c0.57,0.318,0.875,0.488,0.875,0.488l-0.471,0.882c0,0-0.305-0.11-0.875-0.317
			c-0.555-0.229-1.427-0.441-2.53-0.65c-1.115-0.178-2.472-0.367-4.058-0.361c-1.577-0.029-3.371,0.063-5.321,0.266
			c-1.95,0.198-4.06,0.56-6.287,0.947c-2.228,0.407-4.566,0.944-6.987,1.507c-4.85,1.104-9.987,2.544-15.214,3.817
			c-2.611,0.648-5.237,1.287-7.86,1.857c-2.631,0.54-5.259,1.002-7.894,1.283c-0.66,0.069-1.328,0.111-1.982,0.166
			c-0.671,0.025-1.334,0.052-2.002,0.055c-0.34-0.011-0.679-0.022-1.015-0.033l-0.503-0.018l-0.566-0.06
			c-0.379-0.048-0.755-0.096-1.129-0.143c-0.335-0.057-0.582-0.123-0.874-0.184l-0.42-0.093l-0.207-0.053l-0.055-0.019l-0.11-0.037
			l-0.218-0.074c-0.291-0.099-0.579-0.198-0.865-0.295c-0.571-0.199-1.14-0.371-1.674-0.633c-0.538-0.242-1.067-0.48-1.586-0.713
			c-0.5-0.281-0.991-0.556-1.471-0.826c-1.888-1.145-3.474-2.453-4.688-3.788c-1.208-1.347-2.052-2.692-2.602-3.854
			c-0.575-1.15-0.834-2.137-0.972-2.81c-0.065-0.343-0.103-0.594-0.122-0.789c-0.02-0.193-0.017-0.274-0.017-0.274L230.802,38.225z"
			/>
	</g>
</g>
<g id="Layer_10">
</g>
<g id="Layer_8">
</g>
<g id="Layer_13">
	<g>
		<path d="M209.596,638.739l4.939,2.685c-8.269,19.527-21.22,31.592-38.857,36.196c-11.521,3.008-22.22,1.827-32.099-3.541
			c-4.795-2.575-9.033-6.354-12.72-11.34c-3.685-4.983-6.464-11.059-8.335-18.225c-1.87-7.165-2.467-14.973-1.786-23.422
			c0.677-8.448,2.552-16.607,5.621-24.474c3.068-7.866,7.009-15.209,11.822-22.03c4.813-6.819,10.55-12.702,17.206-17.649
			c6.657-4.946,14.09-8.492,22.305-10.637c8.211-2.144,16.006-1.382,23.381,2.286c7.374,3.669,12.293,10.215,14.754,19.64
			c1.453,5.567,1.7,11.759,0.742,18.573c-0.959,6.815-2.812,13.246-5.562,19.29c-2.749,6.047-6.456,11.415-11.117,16.105
			c-4.663,4.692-9.724,7.749-15.181,9.174c-5.456,1.425-10.244,0.791-14.361-1.903c-4.117-2.691-6.789-6.381-8.012-11.065
			c-2.102-8.048-0.785-16.708,3.948-25.979c4.732-9.273,11.895-17.073,21.487-23.405l3.046,3.886
			c-4.831,3.146-9.05,7.396-12.655,12.753c-3.606,5.356-6.104,10.734-7.49,16.13c-1.389,5.396-1.629,9.83-0.723,13.303
			c1.886,7.222,6.851,9.781,14.899,7.68c5.622-1.468,10.608-5.42,14.964-11.855s7.354-13.443,8.994-21.026
			c1.643-7.581,1.653-14.473,0.034-20.674c-1.618-6.2-5.037-10.724-10.255-13.572c-5.218-2.847-11.299-3.365-18.244-1.552
			c-6.944,1.813-13.537,5.773-19.773,11.874c-6.237,6.104-11.325,13.172-15.261,21.206c-3.938,8.034-6.601,16.78-7.987,26.238
			c-1.388,9.458-1.008,18.295,1.136,26.507c3.468,13.284,10.45,21.882,20.952,25.793c6.129,2.285,12.489,2.567,19.076,0.848
			c6.586-1.719,12.655-5.025,18.207-9.92C202.245,651.742,206.545,645.777,209.596,638.739z"/>
		<path d="M233.023,541.749l13.394-3.496c-1.305,4.699-2.579,14.701-3.822,30.009c-1.245,15.309-2.038,30.589-2.385,45.839
			c-0.346,15.25-0.104,24.461,0.723,27.629c0.827,3.17,1.626,4.654,2.398,4.452c2.315-0.604,5.011-5.046,8.089-13.327l4.337,2.4
			c-1.332,4.823-3.029,9.035-5.092,12.634c-3.637,6.366-6.999,9.951-10.085,10.757c-5.622,1.468-9.318-1.188-11.088-7.967
			c-2.634-10.088-3.437-26.862-2.409-50.328C228.11,576.887,230.089,557.352,233.023,541.749z"/>
		<path d="M297.701,590.923l12.898-3.367l-0.079,26.426c-0.141,3.745,0.16,7.039,0.9,9.876c0.741,2.84,1.608,4.129,2.601,3.869
			c0.992-0.259,2.129-1.482,3.412-3.672s2.3-4.323,3.054-6.405l1.209-3.142l4.42,2.379c-0.898,4.003-2.371,7.831-4.42,11.486
			c-3.975,7.103-7.975,11.178-11.997,12.228c-4.742,1.238-8.067-1.808-9.981-9.14c-0.316-1.211-0.5-2.135-0.547-2.771
			c-0.094,3.027-1.016,5.918-2.77,8.672c-3.317,5.341-7.744,8.732-13.283,10.179c-5.54,1.446-10.471,0.718-14.79-2.188
			c-4.321-2.904-7.223-7.195-8.705-12.873c-2.302-8.818-1.378-17.008,2.771-24.568c4.15-7.56,10.083-12.347,17.8-14.361
			c3.857-1.007,7.332-0.779,10.422,0.68c3.089,1.46,5.465,3.798,7.129,7.014L297.701,590.923z M285.274,599.818
			c-3.197,0.835-5.838,2.953-7.924,6.353c-2.085,3.4-3.379,7.182-3.882,11.345c-0.502,4.166-0.285,8.038,0.65,11.622
			c0.936,3.583,2.476,6.271,4.622,8.065c2.146,1.795,4.859,2.264,8.139,1.407c3.279-0.855,5.854-3.118,7.723-6.785
			c3.519-7.04,4.25-14.503,2.192-22.385C294.737,601.558,290.896,598.351,285.274,599.818z"/>
		<path d="M350.004,630.078c-2.343,0.612-4.362,0.374-6.06-0.714c-1.697-1.086-2.872-2.884-3.527-5.393
			c-0.654-2.508-0.899-6.094-0.734-10.76c0.166-4.664,0.437-8.93,0.812-12.796c0.374-3.864,0.406-6.391,0.097-7.576
			c-0.31-1.185-0.85-1.676-1.621-1.475c-1.931,0.504-4.052,5.119-6.364,13.848l-6.381-1.778c4.534-15.784,10.19-24.562,16.97-26.332
			c4.631-1.209,7.708,1.109,9.232,6.951c0.446,1.709,0.607,4.581,0.484,8.617l-1.508,18.585c-0.189,1.758-0.113,3.283,0.225,4.578
			c0.338,1.296,1.004,1.813,1.996,1.554c1.872-0.488,4.411-4.859,7.615-13.114l4.314,2.317c-1.538,6.29-3.93,11.623-7.172,16.002
			C355.139,626.972,352.346,629.468,350.004,630.078z M353.765,548.247c0.583,2.231,0.369,4.451-0.645,6.659
			s-2.789,3.642-5.324,4.304s-4.635,0.401-6.298-0.784c-1.665-1.184-2.798-2.935-3.402-5.249c-0.604-2.315-0.354-4.573,0.749-6.775
			c1.104-2.201,2.895-3.626,5.375-4.273c2.479-0.647,4.546-0.348,6.196,0.899C352.065,544.274,353.182,546.015,353.765,548.247z"/>
		<path d="M410.099,571.205c-2.096,0.547-4.227,2.532-6.396,5.953c-2.169,3.422-4.1,7.415-5.792,11.978
			c-2.688,7.296-5.213,15.55-7.578,24.763l-1.196,4.552l-11.657,3.043l0.535-8.441c1.054-15.582,1.232-24.71,0.534-27.384
			c-0.697-2.673-1.489-3.894-2.37-3.664c-1.6,0.418-3.006,2.815-4.216,7.194c-0.266,1.012-0.495,1.822-0.689,2.432
			c-0.193,0.61-0.4,1.341-0.62,2.193c-0.219,0.852-0.362,1.375-0.429,1.568l-6.382-1.777c2.472-8.122,5.062-14.318,7.776-18.589
			c2.711-4.27,5.94-6.895,9.69-7.873c1.707-0.446,3.369-0.114,4.984,0.995c1.613,1.11,2.676,2.643,3.187,4.599
			c0.512,1.958,0.854,3.723,1.029,5.295c0.176,1.574,0.29,3.03,0.347,4.37c0.054,1.341,0.065,2.957,0.03,4.85
			c-0.036,1.895-0.085,3.348-0.142,4.364c-0.06,1.017-0.127,2.388-0.207,4.115c-0.077,1.729-0.138,2.744-0.175,3.05
			c0.474-2.243,1.392-5.604,2.756-10.082c1.362-4.476,2.272-7.306,2.73-8.484c0.457-1.179,1.104-2.761,1.94-4.746
			c0.835-1.984,1.616-3.557,2.344-4.717c0.727-1.162,1.611-2.511,2.652-4.049c1.042-1.537,2.09-2.767,3.144-3.691
			c2.712-2.238,5.501-3.732,8.368-4.48c2.865-0.748,5.387-0.508,7.562,0.72c2.175,1.229,3.554,2.958,4.137,5.189
			c0.583,2.232,0.391,4.373-0.576,6.422c-0.966,2.048-2.374,3.312-4.22,3.794c-1.848,0.481-3.377,0.544-4.589,0.183
			c-1.213-0.359-2.106-0.848-2.678-1.465C412.258,571.701,410.979,570.975,410.099,571.205z"/>
		<path d="M445.654,586.297c1.985,6.253,7.084,8.308,15.297,6.163c3.031-0.791,5.961-2.483,8.787-5.075
			c2.825-2.593,4.949-5.34,6.37-8.243l4.16,1.387c-2.576,8.857-8.655,15.449-18.241,19.774c-2.118,0.907-4.197,1.626-6.236,2.159
			c-5.953,1.554-11.429,0.879-16.426-2.026c-4.997-2.904-8.237-7.195-9.719-12.873c-1.482-5.676-1.116-11.38,1.097-17.11
			c2.214-5.729,5.58-10.598,10.097-14.603c4.519-4.005,9.312-6.67,14.384-7.994c5.07-1.323,9.77-1.313,14.094,0.03
			c4.326,1.343,7.039,3.961,8.145,7.853c1.104,3.894,0.841,7.567-0.787,11.024c-1.629,3.458-4.068,6.405-7.317,8.843
			c-6.46,4.809-13.161,8.116-20.104,9.93L445.654,586.297z M443.972,581.88c6.061-1.816,10.724-4.081,13.991-6.788
			c3.267-2.707,5.339-5.368,6.218-7.981c0.878-2.614,0.997-5.146,0.356-7.601c-0.641-2.451-1.75-4.105-3.326-4.96
			c-1.579-0.853-3.082-1.094-4.515-0.72c-3.528,0.921-6.447,2.994-8.756,6.216c-2.309,3.223-3.778,6.786-4.406,10.688
			C442.903,574.638,443.051,578.354,443.972,581.88z"/>
	</g>
</g>
<g id="Layer_13_copy" display="none">
	
		<text transform="matrix(0.9676 -0.2526 0.2526 0.9676 130.6032 685.9442)" display="inline" font-family="'Niconne-Regular'" font-size="175">Claire</text>
</g>
</svg>
