<?xml version="1.0" encoding="utf-8"?>
<!-- Generator: Adobe Illustrator 17.0.0, SVG Export Plug-In . SVG Version: 6.00 Build 0)  -->
<!DOCTYPE svg PUBLIC "-//W3C//DTD SVG 1.1//EN" "http://www.w3.org/Graphics/SVG/1.1/DTD/svg11.dtd">
<svg version="1.1" xmlns="http://www.w3.org/2000/svg" xmlns:xlink="http://www.w3.org/1999/xlink" x="0px" y="0px"
	 width="124.948px" height="146.392px" viewBox="0 0 124.948 146.392" enable-background="new 0 0 124.948 146.392"
	 xml:space="preserve">
<g id="_x31_._Scribble">
</g>
<g id="_x32_._Tokens">
</g>
<g id="_x33_._CoreNLP">
</g>
<g id="_x34_._Dep_Parse">
</g>
<g id="_x35_._Wikipedia">
</g>
<g id="_x36_._Global">
</g>
<g id="_x37_._Ear">
	<g>
		<path fill="none" stroke="#9081DE" stroke-width="4" stroke-miterlimit="10" d="M123.11,54.536c0,0,1.893-38.628-27.287-47.453
			S41.22,1.569,41.216,56.067c-0.003,34.748,28.647,16.271,28.818,48.545c0.266,50.026,33.148,45.332,42.585,18.544"/>
		<path fill="#9081DE" d="M112.395,61.042c-3.242-20.568-13.778-37.038-28.622-39.366c-9.934-1.558-17.103-1.159-21.663,3.07
			c-7.385,6.849-5.568,20.006-5.549,20.138l-4.545,0.661c-0.092-0.637-2.164-15.696,6.97-24.167
			c5.736-5.319,14.41-6.726,25.789-4.184c14.307,3.196,25.144,15.667,29.73,34.213c5.908,23.892,0.07,49.845-13.883,61.71
			l-0.327-0.384c-3.454,2.405-7.37,3.414-10.857,2.407c-6.678-1.929-9.234-10.47-5.708-19.076
			c3.526-8.607,12.851-6.778,18.477-12.091C106.479,79.937,114.572,74.855,112.395,61.042z"/>
		<g>
			<g>
				<g>
					<path fill="#9081DE" d="M7.5,56c-8.823,10.848-8.466,25.181,0,36.036c1.981,2.54,5.493-1.025,3.536-3.536
						c-6.794-8.711-6.586-20.866,0-28.964C13.051,57.058,9.536,53.497,7.5,56L7.5,56z"/>
				</g>
			</g>
			<g>
				<g>
					<path fill="#9081DE" d="M14.75,60.063c-6.596,8.16-6.753,19.1-0.391,27.405c1.932,2.522,6.279,0.037,4.317-2.524
						c-4.938-6.447-5.471-15.06-0.391-21.345C20.293,61.115,16.778,57.554,14.75,60.063L14.75,60.063z"/>
				</g>
			</g>
			<g>
				<g>
					<path fill="#9081DE" d="M22,64.125c-4.613,5.707-4.875,13.426-0.391,19.28c1.932,2.522,6.279,0.037,4.317-2.524
						c-3.213-4.194-3.117-9.847-0.391-13.22C27.543,65.178,24.028,61.617,22,64.125L22,64.125z"/>
				</g>
			</g>
		</g>
	</g>
</g>
<g id="_x38_._Syntagmas">
</g>
<g id="_x39_._Rules">
</g>
<g id="_x31_0._Annotations">
</g>
<g id="_x31_1._Correct_sent">
</g>
<g id="_x31_2._Light_bulb">
</g>
<g id="Text" display="none">
</g>
<g id="Arrows" display="none">
	<g display="inline">
		<path fill="none" stroke="#969696" stroke-width="6" stroke-miterlimit="10" d="M6.561,121.891
			c-2.851,2.03-29.776,24.244-66.147,18.396"/>
	</g>
</g>
</svg>
