<?xml version="1.0" encoding="utf-8"?>
<!-- Generator: Adobe Illustrator 17.0.0, SVG Export Plug-In . SVG Version: 6.00 Build 0)  -->
<!DOCTYPE svg PUBLIC "-//W3C//DTD SVG 1.1//EN" "http://www.w3.org/Graphics/SVG/1.1/DTD/svg11.dtd">
<svg version="1.1" xmlns="http://www.w3.org/2000/svg" xmlns:xlink="http://www.w3.org/1999/xlink" x="0px" y="0px" width="257px"
	 height="131.184px" viewBox="0 0 257 131.184" enable-background="new 0 0 257 131.184" xml:space="preserve">
<g id="_x31_._Scribble">
</g>
<g id="_x32_._Tokens">
	<g>
		<path fill="#EFEFEF" d="M257,119.607c0,6.394-5.183,11.577-11.577,11.577H11.577C5.183,131.184,0,126.001,0,119.607V11.761
			C0,5.368,5.183,0.184,11.577,0.184h233.846c6.394,0,11.577,5.183,11.577,11.577V119.607z"/>
		<g>
			<circle fill="#9081DE" cx="94.185" cy="30.885" r="13.999"/>
			<circle fill="#8EC146" cx="25.825" cy="30.885" r="13.999"/>
			<circle fill="#EDA14A" cx="128.365" cy="30.885" r="13.999"/>
			<circle fill="#8EC146" cx="162.545" cy="30.885" r="13.999"/>
			<circle fill="#8EC146" cx="196.726" cy="30.885" r="13.999"/>
			<circle fill="#FF809E" cx="60.005" cy="30.885" r="13.999"/>
			<circle fill="#9081DE" cx="230.906" cy="30.885" r="13.999"/>
			<circle fill="#9081DE" cx="94.185" cy="63.782" r="13.999"/>
			<circle fill="#FF809E" cx="25.825" cy="63.782" r="13.999"/>
			<circle fill="#EDA14A" cx="128.365" cy="63.782" r="13.999"/>
			<circle fill="#EDA14A" cx="162.545" cy="63.782" r="13.999"/>
			<circle fill="#9081DE" cx="196.726" cy="63.782" r="13.999"/>
			<circle fill="#EDA14A" cx="60.005" cy="63.782" r="13.999"/>
			<circle fill="#8EC146" cx="230.906" cy="63.782" r="13.999"/>
			<circle fill="#EDA14A" cx="94.185" cy="97.379" r="13.999"/>
			<circle fill="#EDA14A" cx="25.825" cy="97.379" r="13.999"/>
			<circle fill="#FF809E" cx="128.365" cy="97.379" r="13.999"/>
			<circle fill="#8EC146" cx="162.545" cy="97.379" r="13.999"/>
			<circle fill="#EDA14A" cx="196.726" cy="97.379" r="13.999"/>
			<circle fill="#8EC146" cx="60.005" cy="97.379" r="13.999"/>
			<circle fill="#EDA14A" cx="230.906" cy="97.379" r="13.999"/>
		</g>
	</g>
</g>
<g id="_x33_._CoreNLP">
</g>
<g id="_x34_._Dep_Parse">
</g>
<g id="_x35_._Wikipedia">
</g>
<g id="_x36_._Global">
</g>
<g id="_x37_._Ear">
</g>
<g id="_x38_._Syntagmas">
</g>
<g id="_x39_._Rules">
</g>
<g id="_x31_0._Annotations">
</g>
<g id="_x31_1._Correct_sent">
</g>
<g id="_x31_2._Light_bulb">
</g>
<g id="Text" display="none">
</g>
<g id="Arrows" display="none">
</g>
</svg>
