<?xml version="1.0" encoding="utf-8"?>
<!-- Generator: Adobe Illustrator 17.0.0, SVG Export Plug-In . SVG Version: 6.00 Build 0)  -->
<!DOCTYPE svg PUBLIC "-//W3C//DTD SVG 1.1//EN" "http://www.w3.org/Graphics/SVG/1.1/DTD/svg11.dtd">
<svg version="1.1" id="Layer_1" xmlns="http://www.w3.org/2000/svg" xmlns:xlink="http://www.w3.org/1999/xlink" x="0px" y="0px"
	 width="124px" height="102px" viewBox="0 0 124 102" enable-background="new 0 0 124 102" xml:space="preserve">
<g id="_x31_._Scribble">
</g>
<g id="_x32_._Tokens">
</g>
<g id="_x33_._CoreNLP">
</g>
<g id="_x34_._Dep_Parse">
</g>
<path fill="#EFEFEF" d="M124,85.957c0,8.864-8.759,16.043-19.573,16.043H19.58C8.766,102,0,94.821,0,85.957V16.412
	C0,7.549,8.766,0,19.58,0h84.847C115.241,0,124,7.549,124,16.412V85.957z"/>
<g enable-background="new    ">
	<path fill="#939393" d="M12.815,21.629c-0.589-0.59-0.491-1.965,0.294-2.357c2.652,0.196,7.072,0.294,10.117,0.294
		c2.75,0,7.759-0.098,11.197-0.294c0.884,0.294,0.786,1.67,0.196,2.357l-2.259,0.196c-2.063,0.196-3.242,0.785-3.242,1.67
		c0,1.178,2.063,6.188,5.108,13.161c5.5,12.277,11.295,24.556,16.992,36.636c2.357-4.91,5.009-10.412,7.563-15.912
		c0.884-1.865,1.571-3.535,1.571-4.027c0-0.49-0.294-1.375-0.786-2.553c-3.438-7.857-7.072-15.715-10.804-23.572
		c-1.474-3.045-2.947-5.108-6.286-5.402l-2.357-0.196c-0.688-0.786-0.589-1.965,0.196-2.357c2.849,0.196,6.581,0.294,10.51,0.294
		c4.911,0,8.545-0.098,10.804-0.294c0.688,0.294,0.786,1.571,0.197,2.357l-2.554,0.196c-3.831,0.294-3.929,0.982-2.062,5.402
		c2.062,4.812,4.813,11,7.563,17.09c1.866-3.83,3.635-7.562,5.795-12.867c3.536-8.349,3.045-9.429-0.098-9.625l-2.947-0.196
		c-0.688-0.982-0.49-2.063,0.197-2.357c2.651,0.196,5.598,0.294,9.232,0.294c3.241,0,7.17-0.098,9.43-0.294
		c0.688,0.294,0.785,1.571,0.195,2.357l-2.848,0.196c-4.125,0.294-5.894,4.714-8.055,8.741c-2.062,3.635-6.188,12.18-7.661,15.617
		c-0.491,0.982-0.884,1.965-0.884,2.357s0.196,1.179,0.688,2.357c3.34,7.562,6.777,14.929,10.019,22.394
		c3.045-6.875,5.991-13.75,8.84-20.725c1.964-4.714,7.17-17.778,7.858-19.545c1.276-3.536,2.945-7.76,2.945-8.938
		c0-1.375-1.178-2.161-3.24-2.259l-2.849-0.196c-0.786-0.885-0.688-1.965,0.099-2.357c3.732,0.196,6.384,0.294,9.429,0.294
		c3.732,0,6.581-0.098,9.134-0.294c0.786,0.294,0.885,1.571,0.197,2.357l-1.866,0.196c-4.911,0.491-5.796,3.438-11.688,17.09
		l-7.17,16.6C85.203,65.533,81.274,75.16,77.248,85.67c-0.295,0.195-0.688,0.293-1.18,0.293c-0.49,0-0.981-0.098-1.375-0.293
		c-3.143-8.742-8.84-21.02-11.885-27.896c-3.536,7.172-9.429,19.744-12.277,27.896c-0.294,0.195-0.688,0.293-1.178,0.293
		c-0.491,0-0.982-0.098-1.474-0.293c-1.669-4.127-5.5-12.967-6.777-15.814c-6.286-13.652-12.376-27.305-18.76-40.958
		c-1.866-4.026-3.045-6.679-7.17-7.071L12.815,21.629z"/>
</g>
<g id="_x36_._Global">
</g>
<g id="_x37_._Ear">
</g>
<g id="_x38_._Syntagmas">
</g>
<g id="_x39_._Rules">
</g>
<g id="_x31_0._Annotations">
</g>
<g id="_x31_1._Correct_sent">
</g>
<g id="_x31_2._Light_bulb">
</g>
<g id="Text" display="none">
</g>
<g id="Arrows" display="none">
</g>
</svg>
