<?xml version="1.0" encoding="utf-8"?>
<!-- Generator: Adobe Illustrator 17.0.0, SVG Export Plug-In . SVG Version: 6.00 Build 0)  -->
<!DOCTYPE svg PUBLIC "-//W3C//DTD SVG 1.1//EN" "http://www.w3.org/Graphics/SVG/1.1/DTD/svg11.dtd">
<svg version="1.1" xmlns="http://www.w3.org/2000/svg" xmlns:xlink="http://www.w3.org/1999/xlink" x="0px" y="0px" width="281px"
	 height="144px" viewBox="0 0 281 144" enable-background="new 0 0 281 144" xml:space="preserve">
<g id="_x31_._Scribble">
</g>
<g id="_x32_._Tokens">
</g>
<g id="_x33_._CoreNLP">
</g>
<g id="_x34_._Dep_Parse">
</g>
<g id="_x35_._Wikipedia">
</g>
<g id="_x36_._Global">
</g>
<g id="_x37_._Ear">
</g>
<g id="_x38_._Syntagmas">
</g>
<g id="_x39_._Rules">
	<g>
		<path fill="#EFEFEF" d="M281,131.299c0,7.015-5.686,12.701-12.701,12.701H12.701C5.686,144,0,138.314,0,131.299V12.701
			C0,5.686,5.686,0,12.701,0h255.598C275.314,0,281,5.686,281,12.701V131.299z"/>
		<g>
			<circle fill="none" stroke="#8EC146" stroke-width="8" stroke-miterlimit="10" cx="39.17" cy="33.337" r="12.25"/>
			<circle fill="none" stroke="#8EC146" stroke-width="8" stroke-miterlimit="10" cx="39.17" cy="109.739" r="12.25"/>
			<g>
				<line fill="none" stroke="#FF809E" stroke-width="8" stroke-miterlimit="10" x1="51.743" y1="59.127" x2="26.92" y2="83.949"/>
				<line fill="none" stroke="#FF809E" stroke-width="8" stroke-miterlimit="10" x1="26.92" y1="59.127" x2="51.743" y2="83.949"/>
			</g>
			<g>
				<g>
					<path fill="#5B5B5B" d="M71.628,38.435c49.976,0,99.952,0,149.928,0c8.237,0,16.473,0,24.71,0c6.449,0,6.449-10,0-10
						c-49.976,0-99.952,0-149.928,0c-8.237,0-16.473,0-24.71,0C65.18,28.435,65.18,38.435,71.628,38.435L71.628,38.435z"/>
				</g>
			</g>
			<g>
				<g>
					<path fill="#5B5B5B" d="M71.628,76.538c49.976,0,99.952,0,149.928,0c8.237,0,16.473,0,24.71,0c6.449,0,6.449-10,0-10
						c-49.976,0-99.952,0-149.928,0c-8.237,0-16.473,0-24.71,0C65.18,66.538,65.18,76.538,71.628,76.538L71.628,76.538z"/>
				</g>
			</g>
			<g>
				<g>
					<path fill="#5B5B5B" d="M71.628,114.641c49.976,0,99.952,0,149.928,0c8.237,0,16.473,0,24.71,0c6.449,0,6.449-10,0-10
						c-49.976,0-99.952,0-149.928,0c-8.237,0-16.473,0-24.71,0C65.18,104.641,65.18,114.641,71.628,114.641L71.628,114.641z"/>
				</g>
			</g>
		</g>
	</g>
</g>
<g id="_x31_0._Annotations">
</g>
<g id="_x31_1._Correct_sent">
</g>
<g id="_x31_2._Light_bulb">
</g>
<g id="Text" display="none">
</g>
<g id="Arrows" display="none">
</g>
</svg>
