<?xml version="1.0" encoding="utf-8"?>
<!-- Generator: Adobe Illustrator 17.0.0, SVG Export Plug-In . SVG Version: 6.00 Build 0)  -->
<!DOCTYPE svg PUBLIC "-//W3C//DTD SVG 1.1//EN" "http://www.w3.org/Graphics/SVG/1.1/DTD/svg11.dtd">
<svg version="1.1" id="Layer_1" xmlns="http://www.w3.org/2000/svg" xmlns:xlink="http://www.w3.org/1999/xlink" x="0px" y="0px"
	 width="157.842px" height="183.068px" viewBox="0 0 157.842 183.068" enable-background="new 0 0 157.842 183.068"
	 xml:space="preserve">
<path fill="#FFFFFF" d="M107.421,171.944c0,6.144-4.98,11.124-11.124,11.124H69.929c-6.144,0-11.124-4.98-11.124-11.124l0,0
	c0-6.144,4.98-11.124,11.124-11.124h26.368C102.441,160.82,107.421,165.8,107.421,171.944L107.421,171.944z"/>
<g id="_x31_._Scribble">
</g>
<g id="_x32_._Tokens">
</g>
<g id="_x33_._CoreNLP">
</g>
<g id="_x34_._Dep_Parse">
</g>
<g id="_x35_._Wikipedia">
</g>
<g id="_x36_._Global">
</g>
<g id="_x37_._Ear">
</g>
<g id="_x38_._Syntagmas">
</g>
<g id="_x39_._Rules">
</g>
<g id="_x31_0._Annotations">
</g>
<g id="_x31_1._Correct_sent">
</g>
<g id="_x31_2._Light_bulb">
	<g>
		<path fill="none" stroke="#EDA14A" stroke-width="4" stroke-miterlimit="10" d="M98.927,159.036l-31.763,3.753
			c-5.115-37.187-35.248-46.246-36.812-77.685c0,0-11.154-53.915,50.164-54.096c40.363-0.119,43.658,44.968,43.658,44.968
			C127.106,102.885,98.927,117.849,98.927,159.036z"/>
		<g>
			<g>
				<path fill="#5B5B5B" d="M98.927,162.771c-10.588,1.189-21.176,2.378-31.763,3.566c-3.167,0.356-3.202,5.359,0,5
					c10.588-1.189,21.176-2.378,31.763-3.566C102.094,167.415,102.129,162.411,98.927,162.771L98.927,162.771z"/>
			</g>
		</g>
		<g>
			<g>
				<path fill="#5B5B5B" d="M67.375,177.193c10.588-1.189,21.176-2.378,31.763-3.566c3.167-0.356,3.202-5.359,0-5
					c-10.588,1.189-21.176,2.378-31.763,3.566C64.208,172.549,64.173,177.553,67.375,177.193L67.375,177.193z"/>
			</g>
		</g>
		<g>
			<g>
				<path fill="#5B5B5B" d="M67.585,183.05c10.588-1.189,21.176-2.378,31.763-3.566c3.167-0.356,3.202-5.359,0-5
					c-10.588,1.189-21.176,2.378-31.763,3.566C64.418,178.405,64.384,183.409,67.585,183.05L67.585,183.05z"/>
			</g>
		</g>
		<path fill="none" stroke="#EDA14A" stroke-width="4" stroke-miterlimit="10" d="M76.15,160.82c0,0-0.026-63.153-6.616-64.251
			s-13.092,14.176-9.885,17.024c7.113,6.315,35.581,4.393,38.876-3.57c3.715-8.977-9.771-20.156-13.066-13.51
			s1.647,63.758,1.647,63.758L76.15,160.82z"/>
		<g>
			<g>
				<path fill="#EDA14A" d="M2.383,97.353c5.542-0.678,11.084-1.356,16.626-2.034c3.158-0.386,3.196-5.391,0-5
					c-5.542,0.678-11.084,1.356-16.626,2.034C-0.775,92.74-0.813,97.744,2.383,97.353L2.383,97.353z"/>
			</g>
		</g>
		<g>
			<g>
				<path fill="#EDA14A" d="M9.922,32.646c4.404,3.432,8.808,6.864,13.212,10.296c2.511,1.957,6.077-1.555,3.536-3.536
					c-4.404-3.432-8.808-6.864-13.212-10.296C10.947,27.154,7.381,30.666,9.922,32.646L9.922,32.646z"/>
			</g>
		</g>
		<g>
			<g>
				<path fill="#EDA14A" d="M69.371,2.412c0.283,5.576,0.567,11.152,0.85,16.728c0.163,3.208,5.164,3.224,5,0
					c-0.283-5.576-0.567-11.152-0.85-16.728C74.208-0.796,69.207-0.812,69.371,2.412L69.371,2.412z"/>
			</g>
		</g>
		<g>
			<g>
				<path fill="#EDA14A" d="M119.887,32.423c3.618-4.253,7.236-8.505,10.854-12.758c2.076-2.44-1.443-5.995-3.536-3.536
					c-3.618,4.253-7.236,8.505-10.854,12.758C114.275,31.328,117.794,34.882,119.887,32.423L119.887,32.423z"/>
			</g>
		</g>
		<g>
			<g>
				<path fill="#EDA14A" d="M138.833,79.734c5.542-0.678,11.084-1.356,16.626-2.034c3.158-0.386,3.196-5.391,0-5
					c-5.542,0.678-11.084,1.356-16.626,2.034C135.675,75.12,135.637,80.125,138.833,79.734L138.833,79.734z"/>
			</g>
		</g>
	</g>
</g>
<g id="Text" display="none">
</g>
<g id="Arrows" display="none">
</g>
</svg>
