<?xml version="1.0" encoding="utf-8"?>
<!-- Generator: Adobe Illustrator 17.0.0, SVG Export Plug-In . SVG Version: 6.00 Build 0)  -->
<!DOCTYPE svg PUBLIC "-//W3C//DTD SVG 1.1//EN" "http://www.w3.org/Graphics/SVG/1.1/DTD/svg11.dtd">
<svg version="1.1" id="Layer_1" xmlns="http://www.w3.org/2000/svg" xmlns:xlink="http://www.w3.org/1999/xlink" x="0px" y="0px"
	 width="310px" height="210px" viewBox="0 0 310 210" enable-background="new 0 0 310 210" xml:space="preserve">
<g id="_x31_._Scribble">
</g>
<g id="_x32_._Tokens">
</g>
<g id="_x33_._CoreNLP">
</g>
<g id="_x34_._Dep_Parse">
</g>
<g id="_x35_._Wikipedia">
</g>
<g id="_x36_._Global">
</g>
<g id="_x37_._Ear">
</g>
<g id="_x38_._Syntagmas">
</g>
<g id="_x39_._Rules">
</g>
<g id="_x31_0._Annotations">
</g>
<path fill="#EFEFEF" d="M310,39c0,8.284-6.716,15-15,15H15C6.716,54,0,47.284,0,39V15C0,6.716,6.716,0,15,0h280
	c8.284,0,15,6.716,15,15V39z"/>
<g enable-background="new    ">
	<path d="M18.594,33.349h2.115c0.28,0,0.311-7.09,0.311-11.412v-3.048c0-2.239-0.093-4.571-0.311-4.571h-1.928
		c-0.373,0-0.622,0-0.622-0.467c0-0.466,0.218-0.466,0.622-0.466c0.498,0,2.799,0.093,3.732,0.093c0.933,0,2.861-0.093,3.576-0.093
		c0.404,0,0.435,0.03,0.435,0.56c0,0.373-0.062,0.373-0.56,0.373h-1.959c-0.311,0-0.342,3.172-0.342,4.913v4.198
		c0,4.229,0.031,9.92,0.311,9.92h2.208c0.342,0,0.342,0.031,0.342,0.404c0,0.467-0.031,0.529-0.342,0.529
		c-0.715,0-2.799-0.094-3.732-0.094c-0.933,0-3.265,0.094-3.98,0.094c-0.404,0-0.435-0.031-0.435-0.561
		C18.035,33.349,18.097,33.349,18.594,33.349z"/>
	<path d="M41.732,27.378c0.249-0.031,0.249-0.249,0.249-0.497c0-2.177-0.031-4.323-2.706-4.323c-0.311,0-0.653,0.031-0.964,0.156
		c-0.871,0.373-0.964,0.839-0.995,2.083c0,0.187-0.031,0.529-0.217,0.653c-0.498,0.373-1.524,0.871-1.648,0.871
		c-0.155,0-0.249-0.125-0.249-0.467c0-2.55,2.705-4.074,4.727-4.074c3.141,0,4.074,1.617,4.074,4.074
		c0,1.586-0.187,5.659-0.187,6.344c0,0.28,0.125,0.933,0.684,0.933c0.125,0,1.088-0.746,1.182-0.746c0.125,0,0.404,0.28,0.404,0.467
		c0,0.124-1.337,1.057-2.021,1.523c-0.218,0.155-0.498,0.342-0.809,0.342c-1.12,0-1.182-1.741-1.244-1.741
		c-0.062,0-0.373,0.249-0.622,0.373c-0.622,0.373-2.271,1.275-3.577,1.275c-1.928,0-3.047-1.058-3.047-2.644
		C34.767,29.213,38.654,27.907,41.732,27.378z M38.965,33.256c1.368,0,3.017-0.716,3.017-0.871v-4.167
		c0-0.218-0.031-0.342-0.187-0.342c-0.093,0-1.026,0.187-1.928,0.466c-1.461,0.467-2.923,1.307-2.923,2.768
		C36.943,32.104,37.659,33.256,38.965,33.256z"/>
	<path d="M47.611,22.745c0.093-0.249,0.031-0.218,0.466-0.249c1.275-0.062,2.955-0.155,3.11-0.155c0.466,0,0.466,0.03,0.466,0.342
		v0.87c0,0.622,0.031,0.498,0.311,0.28c0.933-0.653,2.612-1.71,4.385-1.71c2.363,0,2.644,1.586,2.737,1.586
		c0.062,0,0.187-0.062,0.404-0.218c0.964-0.622,2.705-1.307,3.887-1.307c3.016,0,3.856,1.866,3.856,4.541
		c0,2.611-0.062,4.882-0.062,6.374c0,0.218,0.062,0.312,0.311,0.312h0.995c0.373,0,0.436,0.124,0.436,0.404
		c0,0.279-0.031,0.436-0.436,0.436c-0.591,0-1.461-0.062-2.363-0.062c-0.777,0-1.71,0.062-2.643,0.062
		c-0.404,0-0.404-0.094-0.404-0.436c0-0.28,0.155-0.404,0.466-0.404h1.244c0.28,0,0.28-4.479,0.28-5.939
		c0-2.084-0.498-3.98-2.768-3.98c-1.586,0-3.016,0.84-3.016,0.933c0,0.249,0.187,0.56,0.187,2.426v5.286
		c0,0.747,0,1.275,0.093,1.275h1.057c0.374,0,0.436,0.124,0.436,0.404c0,0.279-0.031,0.436-0.436,0.436
		c-0.591,0-1.368-0.062-2.27-0.062c-0.777,0-1.337,0.062-2.27,0.062c-0.404,0-0.466-0.094-0.466-0.436
		c0-0.28,0.062-0.404,0.373-0.404h1.213c0.187,0,0.218-1.523,0.218-3.017c0-1.368-0.031-2.705-0.031-2.923
		c0-2.115-0.093-3.98-2.239-3.98c-1.555,0-2.612,0.56-3.109,0.933c-0.311,0.249-0.342,0.373-0.342,0.56v7.091
		c0,1.213,0,1.337,0.591,1.337h0.653c0.374,0,0.436,0.124,0.436,0.404c0,0.279-0.031,0.436-0.436,0.436
		c-0.591,0-1.586-0.062-2.363-0.062s-2.114,0.062-2.612,0.062c-0.249,0-0.373-0.062-0.373-0.404c0-0.28,0.031-0.436,0.342-0.436
		h1.213c0.28,0,0.342-0.404,0.404-0.995c0.062-0.622,0.062-1.897,0.062-3.297v-3.39c0-1.274-0.062-2.425-0.125-2.425
		c-0.093,0-1.679,0.093-1.834,0.093c-0.125,0-0.156-0.031-0.156-0.093C47.487,23.242,47.549,22.932,47.611,22.745z"/>
	<path d="M83.967,27.378c0.249-0.031,0.249-0.249,0.249-0.497c0-2.177-0.031-4.323-2.706-4.323c-0.311,0-0.653,0.031-0.964,0.156
		c-0.871,0.373-0.964,0.839-0.995,2.083c0,0.187-0.031,0.529-0.217,0.653c-0.498,0.373-1.524,0.871-1.648,0.871
		c-0.155,0-0.249-0.125-0.249-0.467c0-2.55,2.706-4.074,4.727-4.074c3.141,0,4.074,1.617,4.074,4.074
		c0,1.586-0.187,5.659-0.187,6.344c0,0.28,0.125,0.933,0.684,0.933c0.125,0,1.088-0.746,1.182-0.746c0.125,0,0.404,0.28,0.404,0.467
		c0,0.124-1.337,1.057-2.021,1.523c-0.218,0.155-0.498,0.342-0.809,0.342c-1.12,0-1.182-1.741-1.244-1.741
		c-0.062,0-0.373,0.249-0.622,0.373c-0.622,0.373-2.27,1.275-3.576,1.275c-1.928,0-3.047-1.058-3.047-2.644
		C77.001,29.213,80.889,27.907,83.967,27.378z M81.2,33.256c1.368,0,3.017-0.716,3.017-0.871v-4.167
		c0-0.218-0.031-0.342-0.187-0.342c-0.093,0-1.026,0.187-1.928,0.466c-1.462,0.467-2.923,1.307-2.923,2.768
		C79.178,32.104,79.894,33.256,81.2,33.256z"/>
	<path d="M102.659,21.78c2.021,0,4.136,1.399,4.136,2.985c0,0.249-0.062,0.436-0.311,0.622c-0.28,0.218-0.653,0.404-0.933,0.404
		c-0.249,0-0.436-0.062-0.529-0.342c-0.498-1.399-0.591-2.83-2.55-2.83c-2.644,0-4.198,2.83-4.198,5.287
		c0,2.611,1.586,5.224,4.789,5.224c2.146,0,3.514-0.933,3.763-0.933c0.125,0,0.218,0.062,0.218,0.249s-1.835,2.052-4.914,2.052
		c-3.638,0-5.877-2.301-5.877-5.814C96.253,24.082,99.643,21.78,102.659,21.78z"/>
	<path d="M115.286,21.874c3.39,0,5.628,2.768,5.628,6.188c0,3.825-2.27,6.593-6.126,6.593c-3.328,0-5.877-2.768-5.877-6.157
		C108.911,24.828,111.461,21.874,115.286,21.874z M114.789,33.847c3.109,0,3.856-3.203,3.856-6.002c0-2.426-1.12-5.162-3.732-5.162
		c-2.923,0-3.794,2.83-3.794,6.25C111.119,31.266,112.363,33.847,114.789,33.847z"/>
	<path d="M122.72,22.962c0.093-0.248,0.031-0.217,0.467-0.248c0.435-0.031,3.047-0.094,3.265-0.094c0.498,0,0.373,0,0.373,0.312
		c0,0.591-0.031,1.274-0.031,1.865c0,0.404,0,0.56,0.031,0.56c0.062,0,0.155-0.497,0.28-0.777c0.715-1.679,1.959-2.643,2.892-2.643
		s1.772,0.964,1.772,1.337c0,0.342-0.653,1.274-1.15,1.274c-0.715,0-1.244-0.964-1.866-0.964c-1.555,0-1.773,3.701-1.773,6.344
		c0,1.648,0,3.483,0.374,3.483h1.959c0.373,0,0.404,0.124,0.404,0.404c0,0.279,0,0.436-0.404,0.436
		c-0.591,0-2.395-0.062-3.296-0.062c-0.777,0-1.741,0.062-2.674,0.062c-0.404,0-0.404-0.094-0.404-0.436
		c0-0.28,0.062-0.404,0.373-0.404h1.337c0.249,0,0.28-2.021,0.28-4.261c0-2.736-0.125-5.753-0.218-5.753s-1.866,0.062-1.99,0.062
		c-0.093,0-0.093-0.031-0.093-0.124C122.626,23.242,122.658,23.118,122.72,22.962z"/>
	<path d="M132.952,22.962c0.093-0.248,0.031-0.217,0.467-0.248c0.435-0.031,3.047-0.094,3.265-0.094c0.498,0,0.373,0,0.373,0.312
		c0,0.591-0.031,1.274-0.031,1.865c0,0.404,0,0.56,0.031,0.56c0.062,0,0.155-0.497,0.28-0.777c0.715-1.679,1.959-2.643,2.892-2.643
		c0.933,0,1.772,0.964,1.772,1.337c0,0.342-0.653,1.274-1.15,1.274c-0.715,0-1.244-0.964-1.866-0.964
		c-1.555,0-1.773,3.701-1.773,6.344c0,1.648,0,3.483,0.374,3.483h1.959c0.373,0,0.404,0.124,0.404,0.404
		c0,0.279,0,0.436-0.404,0.436c-0.591,0-2.395-0.062-3.296-0.062c-0.777,0-1.741,0.062-2.674,0.062
		c-0.404,0-0.404-0.094-0.404-0.436c0-0.28,0.062-0.404,0.373-0.404h1.337c0.249,0,0.28-2.021,0.28-4.261
		c0-2.736-0.125-5.753-0.218-5.753s-1.866,0.062-1.99,0.062c-0.093,0-0.093-0.031-0.093-0.124
		C132.858,23.242,132.89,23.118,132.952,22.962z"/>
	<path d="M149.59,21.874c3.079,0,4.633,2.332,4.633,4.944c0,0.249-1.306,0.373-1.679,0.373c-0.342,0-6.717-0.155-6.966-0.155
		c-0.155,0-0.155,0.684-0.155,1.119c0,3.328,2.301,5.132,4.633,5.132c2.488,0,3.918-2.021,4.012-2.021s0.498,0.373,0.498,0.466
		c0,0.187-2.239,2.924-5.38,2.924c-3.825,0-5.939-2.488-5.939-6.127C143.247,24.797,145.828,21.874,149.59,21.874z M145.952,26.508
		c0.156,0,3.328-0.062,4.882-0.125c1.151-0.031,1.244-0.062,1.244-0.124c0-3.048-1.866-3.701-2.861-3.701
		c-2.053,0-3.514,2.146-3.639,3.701C145.579,26.445,145.703,26.508,145.952,26.508z"/>
	<path d="M162.995,21.78c2.021,0,4.136,1.399,4.136,2.985c0,0.249-0.062,0.436-0.311,0.622c-0.28,0.218-0.653,0.404-0.934,0.404
		c-0.248,0-0.436-0.062-0.528-0.342c-0.497-1.399-0.591-2.83-2.55-2.83c-2.644,0-4.198,2.83-4.198,5.287
		c0,2.611,1.586,5.224,4.789,5.224c2.146,0,3.514-0.933,3.763-0.933c0.125,0,0.218,0.062,0.218,0.249s-1.835,2.052-4.913,2.052
		c-3.639,0-5.878-2.301-5.878-5.814C156.589,24.082,159.979,21.78,162.995,21.78z"/>
	<path d="M169.495,23.242l2.83-3.949c0.062-0.094,0.155-0.155,0.28-0.155c0.154,0,0.311,0.093,0.311,0.311
		c0,0.094-0.187,2.363-0.187,2.861c0,0.279,0.062,0.311,0.342,0.311h2.954c0.373,0,0.404,0,0.28,0.56
		c-0.093,0.404-0.187,0.498-0.404,0.498h-3.079c-0.093,0-0.093,0.56-0.093,1.431v5.971c0,0.964,0.062,1.928,1.493,1.928
		c1.212,0,2.238-0.498,2.487-0.498c0.093,0,0.124,0.28,0.124,0.498c0,0.155-2.643,1.462-3.918,1.462
		c-1.772,0-2.239-1.213-2.239-2.146c0.031-2.238,0.062-5.814,0.062-6.717c0-1.15-0.031-1.896-0.374-1.896h-0.777
		c-0.124,0-0.186-0.094-0.186-0.218C169.402,23.397,169.434,23.305,169.495,23.242z"/>
	<path d="M185.543,31.452c0.187,0,0.218,0.404,0.591,0.84c0.622,0.746,1.399,1.555,2.892,1.555c1.058,0,2.053-0.622,2.053-2.021
		c0-1.462-1.307-2.146-2.768-2.768c-1.711-0.746-3.607-1.368-3.607-3.576c0-2.084,2.27-3.515,4.479-3.515
		c2.363,0,3.234,1.369,3.234,2.084c0,0.342-0.902,0.591-1.244,0.591c-0.716,0-0.373-2.021-2.395-2.021
		c-1.026,0-2.271,0.56-2.271,2.177c0,1.337,1.244,1.866,2.55,2.488c1.804,0.87,3.856,1.772,3.856,3.607
		c0,2.27-2.083,3.669-4.385,3.669c-1.897,0-3.919-0.964-3.919-1.928C184.609,32.136,185.294,31.452,185.543,31.452z"/>
	<path d="M201.279,21.874c3.078,0,4.633,2.332,4.633,4.944c0,0.249-1.306,0.373-1.679,0.373c-0.342,0-6.717-0.155-6.966-0.155
		c-0.155,0-0.155,0.684-0.155,1.119c0,3.328,2.302,5.132,4.634,5.132c2.487,0,3.918-2.021,4.012-2.021
		c0.093,0,0.497,0.373,0.497,0.466c0,0.187-2.239,2.924-5.38,2.924c-3.825,0-5.939-2.488-5.939-6.127
		C194.936,24.797,197.517,21.874,201.279,21.874z M197.641,26.508c0.156,0,3.328-0.062,4.883-0.125
		c1.15-0.031,1.244-0.062,1.244-0.124c0-3.048-1.866-3.701-2.861-3.701c-2.053,0-3.514,2.146-3.639,3.701
		C197.268,26.445,197.393,26.508,197.641,26.508z"/>
	<path d="M208.123,22.807c0.093-0.249,0.03-0.218,0.466-0.249c0.436-0.03,2.395-0.155,3.265-0.217
		c0.467-0.031,0.404,0.03,0.404,0.342v1.306c0,0.28,0.312-0.062,0.467-0.155c0.934-0.591,2.084-1.586,3.98-1.586
		c3.607,0,4.137,2.457,4.137,5.504c0,1.711-0.156,4.82-0.156,5.287c0,0.342,0.031,0.373,0.342,0.373h0.934
		c0.373,0,0.436,0.031,0.436,0.404c0,0.279,0,0.436-0.373,0.436c-0.592,0-1.432-0.062-2.333-0.062c-0.777,0-1.71,0.062-2.644,0.062
		c-0.436,0-0.436-0.062-0.436-0.404c0-0.373,0.094-0.436,0.404-0.436h1.151c0.312,0,0.312,0,0.342-0.342
		c0.062-0.747,0.124-2.177,0.124-5.474c0-2.239-0.59-4.043-2.984-4.043c-1.244,0-2.146,0.561-2.768,0.871
		c-0.498,0.249-0.561,0.436-0.561,0.715c0,2.551-0.031,5.132-0.031,7.682c0,0.497,0,0.591,0.404,0.591h1.119
		c0.374,0,0.404,0.124,0.404,0.404c0,0.279,0,0.436-0.404,0.436c-0.59,0-1.616-0.062-2.518-0.062c-0.777,0-1.805,0.062-2.737,0.062
		c-0.404,0-0.404-0.094-0.404-0.436c0-0.28,0.062-0.404,0.374-0.404h1.212c0.312,0,0.28-0.094,0.312-0.56
		c0.093-1.835,0.155-4.043,0.155-6.033c0-1.058,0-2.114-0.062-3.079c-0.03-0.466-0.062-0.435-0.373-0.435
		c-0.093,0-1.586,0.124-1.71,0.124c-0.094,0-0.094-0.031-0.094-0.124C207.967,23.211,208.061,22.962,208.123,22.807z"/>
	<path d="M224.357,23.242l2.83-3.949c0.062-0.094,0.154-0.155,0.279-0.155c0.155,0,0.311,0.093,0.311,0.311
		c0,0.094-0.186,2.363-0.186,2.861c0,0.279,0.062,0.311,0.342,0.311h2.954c0.373,0,0.403,0,0.28,0.56
		c-0.094,0.404-0.188,0.498-0.404,0.498h-3.079c-0.093,0-0.093,0.56-0.093,1.431v5.971c0,0.964,0.062,1.928,1.492,1.928
		c1.213,0,2.238-0.498,2.488-0.498c0.093,0,0.123,0.28,0.123,0.498c0,0.155-2.643,1.462-3.918,1.462
		c-1.771,0-2.238-1.213-2.238-2.146c0.031-2.238,0.062-5.814,0.062-6.717c0-1.15-0.031-1.896-0.374-1.896h-0.777
		c-0.124,0-0.187-0.094-0.187-0.218C224.264,23.397,224.295,23.305,224.357,23.242z"/>
	<path d="M239.439,21.874c3.079,0,4.634,2.332,4.634,4.944c0,0.249-1.306,0.373-1.679,0.373c-0.342,0-6.717-0.155-6.967-0.155
		c-0.154,0-0.154,0.684-0.154,1.119c0,3.328,2.301,5.132,4.633,5.132c2.488,0,3.918-2.021,4.012-2.021s0.498,0.373,0.498,0.466
		c0,0.187-2.24,2.924-5.381,2.924c-3.824,0-5.939-2.488-5.939-6.127C233.096,24.797,235.678,21.874,239.439,21.874z M235.801,26.508
		c0.156,0,3.328-0.062,4.883-0.125c1.15-0.031,1.244-0.062,1.244-0.124c0-3.048-1.865-3.701-2.861-3.701
		c-2.053,0-3.514,2.146-3.639,3.701C235.428,26.445,235.553,26.508,235.801,26.508z"/>
	<path d="M246.283,22.807c0.093-0.249,0.03-0.218,0.466-0.249c0.436-0.03,2.395-0.155,3.265-0.217
		c0.467-0.031,0.404,0.03,0.404,0.342v1.306c0,0.28,0.312-0.062,0.467-0.155c0.934-0.591,2.084-1.586,3.98-1.586
		c3.607,0,4.137,2.457,4.137,5.504c0,1.711-0.156,4.82-0.156,5.287c0,0.342,0.031,0.373,0.342,0.373h0.934
		c0.373,0,0.436,0.031,0.436,0.404c0,0.279,0,0.436-0.373,0.436c-0.592,0-1.432-0.062-2.333-0.062c-0.777,0-1.71,0.062-2.644,0.062
		c-0.436,0-0.436-0.062-0.436-0.404c0-0.373,0.094-0.436,0.404-0.436h1.151c0.312,0,0.312,0,0.342-0.342
		c0.062-0.747,0.124-2.177,0.124-5.474c0-2.239-0.59-4.043-2.984-4.043c-1.244,0-2.146,0.561-2.768,0.871
		c-0.498,0.249-0.561,0.436-0.561,0.715c0,2.551-0.031,5.132-0.031,7.682c0,0.497,0,0.591,0.404,0.591h1.119
		c0.374,0,0.404,0.124,0.404,0.404c0,0.279,0,0.436-0.404,0.436c-0.59,0-1.616-0.062-2.518-0.062c-0.777,0-1.805,0.062-2.737,0.062
		c-0.404,0-0.404-0.094-0.404-0.436c0-0.28,0.062-0.404,0.374-0.404h1.212c0.312,0,0.28-0.094,0.312-0.56
		c0.093-1.835,0.155-4.043,0.155-6.033c0-1.058,0-2.114-0.062-3.079c-0.03-0.466-0.062-0.435-0.373-0.435
		c-0.093,0-1.586,0.124-1.71,0.124c-0.094,0-0.094-0.031-0.094-0.124C246.127,23.211,246.221,22.962,246.283,22.807z"/>
	<path d="M268.83,21.78c2.021,0,4.136,1.399,4.136,2.985c0,0.249-0.062,0.436-0.312,0.622c-0.279,0.218-0.652,0.404-0.932,0.404
		c-0.25,0-0.436-0.062-0.529-0.342c-0.498-1.399-0.591-2.83-2.55-2.83c-2.644,0-4.198,2.83-4.198,5.287
		c0,2.611,1.586,5.224,4.789,5.224c2.146,0,3.514-0.933,3.763-0.933c0.124,0,0.218,0.062,0.218,0.249s-1.835,2.052-4.914,2.052
		c-3.638,0-5.877-2.301-5.877-5.814C262.424,24.082,265.813,21.78,268.83,21.78z"/>
	<path d="M281.426,21.874c3.078,0,4.633,2.332,4.633,4.944c0,0.249-1.306,0.373-1.679,0.373c-0.342,0-6.717-0.155-6.966-0.155
		c-0.155,0-0.155,0.684-0.155,1.119c0,3.328,2.302,5.132,4.634,5.132c2.487,0,3.918-2.021,4.012-2.021
		c0.093,0,0.497,0.373,0.497,0.466c0,0.187-2.239,2.924-5.38,2.924c-3.825,0-5.939-2.488-5.939-6.127
		C275.082,24.797,277.663,21.874,281.426,21.874z M277.787,26.508c0.156,0,3.328-0.062,4.883-0.125
		c1.15-0.031,1.244-0.062,1.244-0.124c0-3.048-1.866-3.701-2.861-3.701c-2.053,0-3.514,2.146-3.639,3.701
		C277.414,26.445,277.539,26.508,277.787,26.508z"/>
	<path d="M291.191,31.172c0.561,0,1.773,0.685,1.773,1.462c0,0.964-0.996,1.804-1.307,1.804c-0.871,0-1.834-0.964-1.834-1.431
		C289.824,32.354,290.694,31.172,291.191,31.172z M291.627,13.26c0.716,0,0.965,0.094,0.965,0.653c0,0.373-0.436,6.406-0.809,14.615
		c0,0.218-0.218,0.312-0.436,0.312c-0.187,0-0.404-0.094-0.404-0.312c-0.187-6.935-0.591-12.812-0.591-14.491
		C290.353,13.415,290.818,13.26,291.627,13.26z"/>
</g>
<g>
	<g>
		
			<rect x="28.025" y="62.468" transform="matrix(-0.9846 0.175 -0.175 -0.9846 187.5799 219.4625)" fill="#EFEFEF" stroke="#8E8E8E" stroke-width="3" stroke-miterlimit="10" width="112.177" height="111.067"/>
		<g>
			<g>
				<path fill="#EDA14A" d="M42.22,94.113c24.057-4.275,48.114-8.551,72.171-12.826c9.513-1.691,5.469-16.145-3.988-14.464
					c-24.057,4.275-48.114,8.551-72.171,12.826C28.72,81.339,32.763,95.794,42.22,94.113L42.22,94.113z"/>
			</g>
		</g>
		<g>
			<g>
				<path fill="#5B5B5B" d="M48.957,109.291c24.057-4.275,48.114-8.551,72.171-12.826c3.171-0.564,1.823-5.382-1.329-4.821
					c-24.057,4.275-48.114,8.551-72.171,12.826C44.457,105.033,45.805,109.851,48.957,109.291L48.957,109.291z"/>
			</g>
		</g>
		<g>
			<g>
				<path fill="#5B5B5B" d="M51.095,121.319c24.057-4.275,48.114-8.551,72.171-12.826c3.171-0.564,1.823-5.382-1.329-4.821
					c-24.057,4.275-48.114,8.551-72.171,12.826C46.595,117.061,47.942,121.88,51.095,121.319L51.095,121.319z"/>
			</g>
		</g>
		<g>
			<g>
				<path fill="#5B5B5B" d="M53.038,132.254c24.057-4.275,48.114-8.551,72.171-12.826c3.171-0.564,1.823-5.382-1.329-4.821
					c-24.057,4.275-48.114,8.551-72.171,12.826C48.538,127.996,49.886,132.815,53.038,132.254L53.038,132.254z"/>
			</g>
		</g>
		<g>
			<g>
				<path fill="#5B5B5B" d="M55.137,144.064c24.057-4.275,48.114-8.551,72.171-12.826c3.171-0.564,1.823-5.382-1.329-4.821
					c-24.057,4.275-48.114,8.551-72.171,12.826C50.637,139.806,51.985,144.624,55.137,144.064L55.137,144.064z"/>
			</g>
		</g>
		<g>
			<g>
				<path fill="#5B5B5B" d="M56.9,155.257c24.057-4.275,48.114-8.551,72.171-12.826c3.171-0.564,1.823-5.382-1.329-4.821
					c-24.057,4.275-48.114,8.551-72.171,12.826C52.4,150.999,53.748,155.817,56.9,155.257L56.9,155.257z"/>
			</g>
		</g>
		<g>
			<g>
				<path fill="#5B5B5B" d="M59.038,167.285c24.057-4.275,48.114-8.551,72.171-12.826c3.171-0.564,1.823-5.382-1.329-4.821
					c-24.057,4.275-48.114,8.551-72.171,12.826C54.538,163.027,55.886,167.845,59.038,167.285L59.038,167.285z"/>
			</g>
		</g>
	</g>
	<g>
		
			<rect x="63.559" y="90.235" transform="matrix(-0.9928 -0.1197 0.1197 -0.9928 220.9813 304.8055)" fill="#EFEFEF" stroke="#8E8E8E" stroke-width="3" stroke-miterlimit="10" width="112.173" height="111.063"/>
		<g>
			<g>
				<path fill="#9081DE" d="M86.745,110.704c24.258,2.924,48.517,5.848,72.775,8.772c4.069,0.49,7.5-3.783,7.5-7.5
					c0-4.459-3.442-7.011-7.5-7.5c-24.258-2.924-48.517-5.848-72.775-8.772c-4.069-0.49-7.5,3.783-7.5,7.5
					C79.245,107.663,82.688,110.215,86.745,110.704L86.745,110.704z"/>
			</g>
		</g>
		<g>
			<g>
				<path fill="#5B5B5B" d="M88.631,127.187c24.258,2.924,48.517,5.848,72.775,8.772c3.197,0.385,3.16-4.619,0-5
					c-24.258-2.924-48.517-5.848-72.775-8.772C85.434,121.801,85.471,126.806,88.631,127.187L88.631,127.187z"/>
			</g>
		</g>
		<g>
			<g>
				<path fill="#5B5B5B" d="M87.168,139.316c24.258,2.924,48.517,5.848,72.775,8.772c3.197,0.385,3.16-4.619,0-5
					c-24.258-2.924-48.517-5.848-72.775-8.772C83.972,133.93,84.009,138.935,87.168,139.316L87.168,139.316z"/>
			</g>
		</g>
		<g>
			<g>
				<path fill="#5B5B5B" d="M85.839,150.342c24.258,2.924,48.517,5.848,72.775,8.772c3.197,0.385,3.16-4.619,0-5
					c-24.258-2.924-48.517-5.848-72.775-8.772C82.643,144.957,82.68,149.961,85.839,150.342L85.839,150.342z"/>
			</g>
		</g>
		<g>
			<g>
				<path fill="#5B5B5B" d="M84.404,162.251c24.258,2.924,48.517,5.848,72.775,8.772c3.197,0.385,3.16-4.619,0-5
					c-24.258-2.924-48.517-5.848-72.775-8.772C81.207,156.866,81.244,161.87,84.404,162.251L84.404,162.251z"/>
			</g>
		</g>
		<g>
			<g>
				<path fill="#5B5B5B" d="M82.828,173.471c24.258,2.924,48.517,5.848,72.775,8.772c3.197,0.385,3.16-4.619,0-5
					c-24.258-2.924-48.517-5.848-72.775-8.772C79.631,168.086,79.668,173.091,82.828,173.471L82.828,173.471z"/>
			</g>
		</g>
		<g>
			<g>
				<path fill="#5B5B5B" d="M81.365,185.601c24.258,2.924,48.517,5.848,72.775,8.772c3.197,0.385,3.16-4.619,0-5
					c-24.258-2.924-48.517-5.848-72.775-8.772C78.169,180.215,78.206,185.22,81.365,185.601L81.365,185.601z"/>
			</g>
		</g>
	</g>
</g>
<g id="_x31_2._Light_bulb">
</g>
<g id="Text" display="none">
	<text transform="matrix(1 0 0 1 -99.9999 224.9998)" display="inline" font-family="'Lato-LightItalic'" font-size="21">Annotate the sentence</text>
	<text transform="matrix(1 0 0 1 -99.9999 250.1998)" display="inline" font-family="'Lato-LightItalic'" font-size="21">with error explanations.</text>
</g>
<g id="Arrows" display="none">
	<g display="inline">
		<path fill="none" stroke="#969696" stroke-width="6" stroke-miterlimit="10" d="M299.356,149.719
			c-3.347,1.022-35.924,13.561-68.568-3.509"/>
		<polygon fill="#969696" points="225.446,158.695 220.431,141.463 237.662,136.448 		"/>
	</g>
</g>
</svg>
