<?xml version="1.0" encoding="utf-8"?>
<!-- Generator: Adobe Illustrator 17.0.0, SVG Export Plug-In . SVG Version: 6.00 Build 0)  -->
<!DOCTYPE svg PUBLIC "-//W3C//DTD SVG 1.1//EN" "http://www.w3.org/Graphics/SVG/1.1/DTD/svg11.dtd">
<svg version="1.1" id="Layer_1" xmlns="http://www.w3.org/2000/svg" xmlns:xlink="http://www.w3.org/1999/xlink" x="0px" y="0px"
	 width="156.701px" height="156.665px" viewBox="0 0 156.701 156.665" enable-background="new 0 0 156.701 156.665"
	 xml:space="preserve">
<circle fill="#FFFFFF" cx="78.35" cy="78.35" r="78.35"/>
<g id="_x31_._Scribble">
</g>
<g id="_x32_._Tokens">
</g>
<g id="_x33_._CoreNLP">
</g>
<g id="_x34_._Dep_Parse">
</g>
<g id="_x35_._Wikipedia">
</g>
<g id="_x36_._Global">
	<g>
		<circle fill="none" stroke="#8EC146" stroke-width="4" stroke-miterlimit="10" cx="78.266" cy="78.207" r="75.439"/>
		<g>
			<g>
				<path fill="#8EC146" d="M126.455,60.114c10.25-1.02,14.43,6.039,14.43,6.039s5.53,13.322-9.054,15.48
					s-26.974-16.945-26.974-25.894s-25.335,0-36.784,8.308s-5.035-14.479-5.035-14.479s-9.95-10.552-4.435-13.081
					s25.235-6.103,26.798-9.879s4.91,6.474,13.542,7.253s-4.855-14.266,2.697-23.137c1.059-1.244,3.386-1.768,6.605-1.752
					c-9.19-3.985-19.323-6.206-29.979-6.206c-20.983,0-39.959,8.573-53.634,22.4c2.154-0.212,3.434-0.322,3.434-0.322
					s20.005,22.523,12.683,30.587c-7.322,8.063,6.047,10.805,6.557,15.652c0.51,4.846-1.248,5.13-1.248,5.13
					s-12.755-13.656-19.131-7.258c-6.377,6.398,11.843,15.92,11.843,15.92L25.492,87.66l8.773,4.354c0,0,24.279,0.908,24.338,15.357
					s-8.222,16.877-14.02,16.577s21.482,30.885,9.784,22.149c-11.698-8.735-53.678-30.265-38.807-59.468
					c3.539-6.95,0.875,3.9-12.678-6.268c1.144,40.665,34.443,73.285,75.385,73.285c41.664,0,75.439-33.775,75.439-75.439
					c0-3.029-0.199-6.01-0.546-8.946C142.039,54.875,118.621,60.894,126.455,60.114z M110.801,108.067
					c-0.549,10.789-6.464,44.775-15.656,32.836c-9.192-11.939-8.07-26.902-9.744-31.217c-1.673-4.316-18.826-11.868-24.586-23.442
					s24.586-25.195,24.586-25.195s16.239-9.085,19.456,3.64s21.598,21.555,21.598,21.555S111.351,97.278,110.801,108.067z"/>
			</g>
		</g>
	</g>
</g>
<g id="_x37_._Ear">
</g>
<g id="_x38_._Syntagmas">
</g>
<g id="_x39_._Rules">
</g>
<g id="_x31_0._Annotations">
</g>
<g id="_x31_1._Correct_sent">
</g>
<g id="_x31_2._Light_bulb">
</g>
<g id="Text" display="none">
</g>
<g id="Arrows" display="none">
	<g display="inline">
		<path fill="none" stroke="#969696" stroke-width="6" stroke-miterlimit="10" d="M152.987,144.707
			c3.434,0.676,38.075,4.972,58.82,35.413"/>
	</g>
</g>
</svg>
