<?xml version="1.0" encoding="utf-8"?>
<!-- Generator: Adobe Illustrator 17.0.0, SVG Export Plug-In . SVG Version: 6.00 Build 0)  -->
<!DOCTYPE svg PUBLIC "-//W3C//DTD SVG 1.1//EN" "http://www.w3.org/Graphics/SVG/1.1/DTD/svg11.dtd">
<svg version="1.1" id="Layer_1" xmlns="http://www.w3.org/2000/svg" xmlns:xlink="http://www.w3.org/1999/xlink" x="0px" y="0px"
	 width="307px" height="101px" viewBox="0 0 307 101" enable-background="new 0 0 307 101" xml:space="preserve">
<g id="_x31_._Scribble">
</g>
<g id="_x32_._Tokens">
</g>
<g id="_x33_._CoreNLP">
</g>
<g id="_x34_._Dep_Parse">
</g>
<g id="_x35_._Wikipedia">
</g>
<g id="_x36_._Global">
</g>
<g id="_x37_._Ear">
</g>
<path fill="#EFEFEF" d="M307,86c0,8.284-6.716,15-15,15H15c-8.284,0-15-6.716-15-15V15C0,6.716,6.716,0,15,0h277
	c8.284,0,15,6.716,15,15V86z"/>
<circle fill="#8EC146" cx="34.433" cy="49.914" r="16.14"/>
<g>
	<circle fill="#9081DE" cx="111.025" cy="49.914" r="16.14"/>
	<circle fill="#9081DE" cx="145.985" cy="49.914" r="16.14"/>
	<path fill="none" stroke="#9081DE" stroke-width="2" stroke-miterlimit="10" d="M108.864,69.282
		c-10.697,0-19.368-8.944-19.368-19.641S98.168,30,108.864,30h39.281c10.697,0,19.368,8.944,19.368,19.641
		s-8.671,19.504-19.368,19.504L108.864,69.282z"/>
</g>
<g>
	<circle fill="#FF809E" cx="193.339" cy="49.914" r="16.14"/>
	<circle fill="#FF809E" cx="228.298" cy="49.914" r="16.14"/>
	<path fill="none" stroke="#FF809E" stroke-width="2" stroke-miterlimit="10" d="M191.178,69.282
		c-10.697,0-19.368-8.944-19.368-19.641S180.481,30,191.178,30h39.281c10.697,0,19.368,8.944,19.368,19.641
		s-8.671,19.504-19.368,19.504L191.178,69.282z"/>
</g>
<circle fill="#FF809E" cx="69.392" cy="49.914" r="16.14"/>
<circle fill="#EDA14A" cx="269.772" cy="49.914" r="16.14"/>
<g enable-background="new    ">
	<path fill="#8EC146" d="M35.899,77.69l-2.162,6.881h-1.488c-0.076,0-0.144-0.024-0.204-0.073s-0.106-0.132-0.137-0.247
		l-1.121-3.725c-0.044-0.142-0.083-0.283-0.117-0.424c-0.033-0.14-0.063-0.281-0.09-0.423c-0.031,0.142-0.063,0.285-0.097,0.43
		c-0.033,0.145-0.072,0.288-0.117,0.431l-1.135,3.711c-0.062,0.214-0.196,0.32-0.4,0.32h-1.415l-2.163-6.881h1.468
		c0.133,0,0.246,0.031,0.337,0.094c0.091,0.062,0.152,0.142,0.184,0.24l0.848,3.403c0.053,0.218,0.1,0.43,0.14,0.634
		c0.04,0.205,0.078,0.407,0.114,0.607c0.053-0.2,0.11-0.402,0.17-0.607c0.06-0.204,0.124-0.416,0.19-0.634l1.008-3.417
		c0.031-0.094,0.091-0.171,0.18-0.233c0.089-0.062,0.193-0.094,0.313-0.094h0.814c0.129,0,0.239,0.031,0.33,0.094
		s0.152,0.14,0.184,0.233l0.975,3.417c0.062,0.214,0.122,0.424,0.18,0.631c0.058,0.207,0.111,0.415,0.16,0.624
		c0.036-0.205,0.074-0.41,0.117-0.617c0.042-0.207,0.092-0.42,0.15-0.638l0.888-3.403c0.031-0.099,0.091-0.179,0.18-0.24
		c0.089-0.062,0.194-0.094,0.314-0.094H35.899z"/>
	<path fill="#8EC146" d="M38.582,78.364c0.129-0.115,0.264-0.221,0.404-0.316s0.289-0.179,0.447-0.247
		c0.158-0.069,0.327-0.123,0.507-0.16c0.18-0.038,0.375-0.057,0.584-0.057c0.374,0,0.705,0.064,0.995,0.193
		c0.289,0.129,0.533,0.309,0.731,0.54c0.198,0.231,0.347,0.508,0.447,0.828s0.15,0.672,0.15,1.055v4.371h-1.835V80.2
		c0-0.383-0.089-0.68-0.267-0.892c-0.178-0.211-0.44-0.316-0.788-0.316c-0.258,0-0.5,0.056-0.727,0.166
		c-0.227,0.111-0.443,0.268-0.647,0.468v4.945H36.74V74.62h1.842V78.364z"/>
</g>
<g enable-background="new    ">
	<path fill="#FF809E" d="M58.781,78.645c0.405-0.364,0.852-0.637,1.341-0.817s1.019-0.271,1.588-0.271c0.41,0,0.775,0.067,1.098,0.2
		c0.322,0.134,0.596,0.319,0.821,0.558s0.397,0.521,0.517,0.851c0.12,0.33,0.18,0.69,0.18,1.081v4.325h-0.841
		c-0.173,0-0.306-0.024-0.397-0.073c-0.091-0.049-0.166-0.151-0.224-0.308l-0.147-0.44c-0.173,0.151-0.341,0.285-0.504,0.4
		c-0.162,0.116-0.33,0.213-0.504,0.291c-0.173,0.078-0.359,0.137-0.557,0.177c-0.198,0.04-0.419,0.06-0.664,0.06
		c-0.303,0-0.579-0.04-0.828-0.12s-0.464-0.199-0.644-0.356c-0.18-0.158-0.319-0.355-0.417-0.591
		c-0.098-0.236-0.147-0.508-0.147-0.814c0-0.254,0.064-0.507,0.193-0.761c0.129-0.254,0.351-0.483,0.664-0.69
		c0.314-0.207,0.732-0.379,1.255-0.515s1.178-0.212,1.966-0.229v-0.354c0-0.431-0.091-0.748-0.274-0.95
		c-0.183-0.203-0.445-0.304-0.788-0.304c-0.253,0-0.465,0.029-0.634,0.09c-0.169,0.06-0.317,0.124-0.444,0.193
		c-0.127,0.069-0.246,0.134-0.357,0.193c-0.111,0.061-0.24,0.09-0.387,0.09c-0.129,0-0.237-0.032-0.324-0.097
		c-0.087-0.064-0.159-0.141-0.217-0.229L58.781,78.645z M62.532,81.694c-0.45,0.022-0.823,0.062-1.122,0.117
		c-0.298,0.056-0.535,0.128-0.71,0.217c-0.176,0.089-0.301,0.19-0.374,0.304s-0.11,0.237-0.11,0.37c0,0.268,0.074,0.456,0.223,0.567
		c0.149,0.111,0.357,0.167,0.624,0.167c0.307,0,0.573-0.055,0.798-0.163c0.225-0.109,0.448-0.279,0.671-0.511V81.694z"/>
	<path fill="#FF809E" d="M71.809,77.69v6.881h-1.134c-0.236,0-0.387-0.106-0.454-0.32l-0.12-0.48
		c-0.138,0.134-0.28,0.256-0.427,0.367c-0.146,0.111-0.304,0.207-0.47,0.287c-0.167,0.08-0.347,0.143-0.541,0.187
		c-0.193,0.044-0.403,0.066-0.63,0.066c-0.374,0-0.707-0.064-0.998-0.193s-0.535-0.309-0.73-0.54s-0.345-0.508-0.447-0.828
		c-0.103-0.32-0.153-0.672-0.153-1.055V77.69h1.842v4.371c0,0.383,0.088,0.68,0.264,0.892c0.176,0.211,0.437,0.316,0.784,0.316
		c0.258,0,0.5-0.057,0.728-0.17s0.442-0.268,0.647-0.464V77.69H71.809z"/>
	<path fill="#FF809E" d="M79.678,84.571h-1.769c-0.134,0-0.242-0.033-0.324-0.101c-0.083-0.066-0.148-0.145-0.197-0.233
		l-1.355-2.263c-0.04,0.151-0.098,0.285-0.173,0.401l-1.162,1.861c-0.053,0.085-0.119,0.161-0.197,0.23
		c-0.078,0.069-0.177,0.104-0.297,0.104h-1.642l2.336-3.551l-2.242-3.33h1.769c0.133,0,0.231,0.018,0.293,0.054
		c0.062,0.035,0.118,0.093,0.167,0.173l1.348,2.183c0.022-0.075,0.051-0.152,0.087-0.23c0.035-0.077,0.078-0.154,0.126-0.229
		l1.035-1.689c0.107-0.173,0.245-0.26,0.414-0.26h1.689l-2.243,3.25L79.678,84.571z"/>
</g>
<g enable-background="new    ">
	<path fill="#9081DE" d="M112.223,79.105c-0.049,0.075-0.099,0.13-0.15,0.163s-0.121,0.05-0.21,0.05
		c-0.089,0-0.18-0.021-0.274-0.066c-0.093-0.044-0.198-0.092-0.313-0.144c-0.116-0.051-0.248-0.099-0.397-0.144
		c-0.149-0.044-0.321-0.066-0.517-0.066c-0.298,0-0.529,0.062-0.694,0.184c-0.165,0.122-0.247,0.283-0.247,0.483
		c0,0.139,0.047,0.254,0.14,0.348c0.093,0.093,0.217,0.175,0.371,0.243c0.153,0.069,0.328,0.134,0.524,0.193
		c0.195,0.061,0.397,0.126,0.604,0.197c0.207,0.071,0.408,0.153,0.604,0.247c0.195,0.094,0.37,0.21,0.524,0.351
		c0.153,0.14,0.277,0.309,0.37,0.507s0.14,0.438,0.14,0.718c0,0.333-0.061,0.642-0.184,0.924c-0.122,0.283-0.301,0.526-0.537,0.731
		c-0.236,0.204-0.53,0.364-0.881,0.48c-0.352,0.115-0.757,0.173-1.215,0.173c-0.236,0-0.469-0.021-0.701-0.063
		c-0.231-0.042-0.452-0.102-0.661-0.18c-0.209-0.078-0.405-0.168-0.587-0.271c-0.183-0.103-0.34-0.214-0.474-0.334l0.427-0.688
		c0.049-0.08,0.11-0.142,0.184-0.187c0.073-0.044,0.168-0.066,0.284-0.066c0.111,0,0.213,0.027,0.307,0.083
		c0.093,0.056,0.198,0.116,0.313,0.181s0.252,0.124,0.411,0.18c0.158,0.056,0.354,0.084,0.59,0.084c0.178,0,0.332-0.021,0.461-0.061
		c0.129-0.04,0.233-0.095,0.313-0.163c0.08-0.069,0.139-0.147,0.177-0.233c0.038-0.087,0.057-0.178,0.057-0.271
		c0-0.151-0.048-0.275-0.144-0.371c-0.096-0.095-0.22-0.179-0.374-0.25s-0.331-0.136-0.531-0.193s-0.404-0.122-0.61-0.193
		c-0.207-0.071-0.41-0.156-0.607-0.254c-0.198-0.098-0.374-0.222-0.527-0.37c-0.153-0.149-0.278-0.333-0.374-0.551
		s-0.144-0.482-0.144-0.794c0-0.285,0.056-0.556,0.167-0.812c0.111-0.256,0.278-0.481,0.5-0.677
		c0.222-0.196,0.499-0.352,0.831-0.468c0.332-0.115,0.715-0.173,1.151-0.173c0.489,0,0.935,0.08,1.335,0.24s0.729,0.369,0.988,0.627
		L112.223,79.105z"/>
	<path fill="#9081DE" d="M119.891,77.69v6.881h-1.134c-0.236,0-0.387-0.106-0.454-0.32l-0.12-0.48
		c-0.138,0.134-0.28,0.256-0.427,0.367c-0.146,0.111-0.304,0.207-0.47,0.287c-0.167,0.08-0.347,0.143-0.541,0.187
		c-0.193,0.044-0.403,0.066-0.63,0.066c-0.374,0-0.707-0.064-0.998-0.193s-0.535-0.309-0.73-0.54s-0.345-0.508-0.447-0.828
		c-0.103-0.32-0.153-0.672-0.153-1.055V77.69h1.842v4.371c0,0.383,0.088,0.68,0.264,0.892c0.176,0.211,0.437,0.316,0.784,0.316
		c0.258,0,0.5-0.057,0.728-0.17s0.442-0.268,0.647-0.464V77.69H119.891z"/>
	<path fill="#9081DE" d="M123.255,78.484c0.271-0.271,0.571-0.489,0.901-0.654c0.329-0.164,0.698-0.246,1.108-0.246
		c0.396,0,0.753,0.079,1.071,0.236c0.318,0.158,0.589,0.384,0.814,0.678s0.398,0.648,0.521,1.064
		c0.123,0.416,0.184,0.882,0.184,1.398c0,0.556-0.07,1.062-0.21,1.518c-0.14,0.457-0.339,0.847-0.598,1.172
		c-0.258,0.325-0.566,0.576-0.924,0.754c-0.358,0.178-0.757,0.268-1.198,0.268c-0.214,0-0.405-0.021-0.574-0.063
		c-0.169-0.043-0.325-0.102-0.467-0.178c-0.143-0.075-0.274-0.165-0.394-0.27s-0.233-0.222-0.34-0.351l-0.073,0.414
		c-0.031,0.129-0.083,0.219-0.154,0.27c-0.071,0.052-0.167,0.077-0.287,0.077h-1.222V74.62h1.842V78.484z M123.255,82.756
		c0.173,0.2,0.361,0.341,0.564,0.421c0.202,0.08,0.413,0.12,0.63,0.12c0.227,0,0.433-0.041,0.618-0.124
		c0.185-0.082,0.344-0.213,0.477-0.394s0.236-0.415,0.307-0.704c0.071-0.289,0.106-0.639,0.106-1.048
		c0-0.365-0.029-0.675-0.086-0.931c-0.058-0.256-0.144-0.467-0.257-0.631c-0.113-0.165-0.252-0.285-0.417-0.36
		c-0.165-0.076-0.356-0.113-0.574-0.113c-0.29,0-0.54,0.063-0.751,0.189c-0.211,0.127-0.417,0.313-0.617,0.558V82.756z"/>
	<path fill="#9081DE" d="M130.93,77.69v7.015c0,0.312-0.04,0.604-0.12,0.877c-0.08,0.274-0.21,0.513-0.391,0.718
		s-0.416,0.367-0.707,0.487c-0.292,0.12-0.651,0.18-1.078,0.18c-0.16,0-0.31-0.011-0.451-0.033c-0.14-0.022-0.283-0.053-0.43-0.093
		l0.067-0.975c0.009-0.089,0.041-0.151,0.097-0.188c0.056-0.035,0.166-0.053,0.33-0.053s0.3-0.015,0.407-0.044
		c0.107-0.028,0.192-0.079,0.257-0.149c0.064-0.071,0.11-0.166,0.137-0.284c0.026-0.118,0.04-0.266,0.04-0.443V77.69H130.93z
		 M131.15,75.734c0,0.156-0.031,0.301-0.093,0.435c-0.062,0.133-0.146,0.251-0.25,0.354s-0.227,0.183-0.367,0.24
		s-0.29,0.087-0.45,0.087c-0.151,0-0.295-0.029-0.431-0.087s-0.255-0.138-0.357-0.24c-0.103-0.103-0.184-0.221-0.244-0.354
		c-0.06-0.134-0.09-0.278-0.09-0.435c0-0.155,0.03-0.301,0.09-0.437s0.141-0.255,0.244-0.357c0.102-0.103,0.221-0.183,0.357-0.24
		s0.279-0.087,0.431-0.087c0.16,0,0.31,0.029,0.45,0.087s0.263,0.138,0.367,0.24s0.188,0.222,0.25,0.357
		C131.119,75.434,131.15,75.579,131.15,75.734z"/>
	<path fill="#9081DE" d="M133.973,81.414c0.058,0.646,0.241,1.117,0.551,1.415c0.309,0.299,0.713,0.447,1.211,0.447
		c0.253,0,0.473-0.03,0.657-0.09c0.185-0.061,0.347-0.127,0.487-0.2s0.267-0.141,0.38-0.2c0.113-0.061,0.226-0.09,0.337-0.09
		c0.143,0,0.254,0.053,0.334,0.16l0.534,0.667c-0.196,0.227-0.412,0.415-0.647,0.564c-0.236,0.148-0.48,0.267-0.734,0.354
		c-0.254,0.087-0.51,0.146-0.768,0.18c-0.258,0.033-0.507,0.051-0.748,0.051c-0.48,0-0.929-0.079-1.345-0.237
		s-0.779-0.392-1.088-0.701c-0.31-0.309-0.553-0.692-0.731-1.151c-0.178-0.458-0.267-0.989-0.267-1.595
		c0-0.467,0.077-0.907,0.23-1.321s0.375-0.774,0.664-1.081c0.289-0.308,0.641-0.551,1.055-0.731c0.414-0.18,0.881-0.27,1.401-0.27
		c0.44,0,0.847,0.069,1.218,0.21c0.372,0.14,0.692,0.344,0.961,0.61c0.269,0.268,0.478,0.596,0.627,0.984
		c0.149,0.39,0.223,0.833,0.223,1.332c0,0.138-0.006,0.251-0.02,0.34c-0.013,0.089-0.036,0.16-0.066,0.214
		c-0.031,0.054-0.074,0.09-0.127,0.11c-0.053,0.02-0.123,0.029-0.207,0.029H133.973z M136.869,80.32
		c0-0.191-0.025-0.374-0.077-0.548c-0.051-0.173-0.132-0.327-0.244-0.46c-0.111-0.134-0.251-0.239-0.42-0.317
		s-0.372-0.117-0.607-0.117c-0.44,0-0.785,0.125-1.034,0.374c-0.25,0.249-0.412,0.605-0.487,1.068H136.869z"/>
	<path fill="#9081DE" d="M144.651,79.226c-0.053,0.071-0.106,0.126-0.16,0.163c-0.053,0.038-0.129,0.057-0.227,0.057
		c-0.089,0-0.174-0.025-0.257-0.076c-0.083-0.052-0.177-0.107-0.284-0.167c-0.106-0.061-0.233-0.116-0.38-0.167
		s-0.329-0.077-0.547-0.077c-0.276,0-0.515,0.051-0.717,0.15c-0.203,0.101-0.371,0.244-0.504,0.431s-0.232,0.414-0.297,0.681
		s-0.097,0.567-0.097,0.901c0,0.703,0.141,1.241,0.424,1.615c0.282,0.373,0.668,0.561,1.158,0.561c0.169,0,0.315-0.015,0.437-0.044
		c0.123-0.028,0.229-0.065,0.32-0.11c0.091-0.044,0.17-0.093,0.237-0.146c0.066-0.054,0.13-0.103,0.19-0.146
		c0.06-0.045,0.12-0.081,0.18-0.11s0.128-0.043,0.204-0.043c0.143,0,0.254,0.053,0.334,0.16l0.527,0.667
		c-0.196,0.227-0.405,0.415-0.627,0.564c-0.223,0.148-0.453,0.267-0.691,0.354c-0.238,0.087-0.479,0.146-0.724,0.18
		s-0.487,0.051-0.728,0.051c-0.423,0-0.823-0.079-1.201-0.237c-0.378-0.158-0.71-0.389-0.995-0.69
		c-0.285-0.303-0.511-0.675-0.677-1.115c-0.167-0.44-0.25-0.943-0.25-1.508c0-0.503,0.073-0.971,0.22-1.401
		c0.147-0.432,0.363-0.806,0.647-1.122c0.285-0.315,0.637-0.563,1.058-0.744c0.421-0.18,0.907-0.27,1.458-0.27
		c0.525,0,0.985,0.084,1.381,0.253s0.752,0.414,1.068,0.734L144.651,79.226z"/>
	<path fill="#9081DE" d="M148.496,84.678c-0.312,0-0.587-0.045-0.828-0.137c-0.24-0.091-0.443-0.221-0.607-0.391
		c-0.165-0.169-0.289-0.373-0.374-0.613s-0.127-0.512-0.127-0.814v-3.711h-0.647c-0.098,0-0.181-0.031-0.25-0.094
		c-0.069-0.062-0.104-0.155-0.104-0.28v-0.721l1.101-0.2l0.374-1.781c0.049-0.201,0.185-0.301,0.407-0.301h0.961v2.096h1.775v1.281
		h-1.775v3.591c0,0.191,0.045,0.343,0.137,0.454s0.221,0.166,0.391,0.166c0.089,0,0.165-0.01,0.227-0.029
		c0.062-0.021,0.116-0.043,0.16-0.067s0.086-0.046,0.124-0.066c0.038-0.02,0.077-0.03,0.117-0.03c0.054,0,0.098,0.013,0.134,0.037
		s0.071,0.065,0.107,0.123l0.554,0.881c-0.253,0.2-0.541,0.352-0.861,0.454S148.838,84.678,148.496,84.678z"/>
</g>
<g enable-background="new    ">
	<path fill="#FF809E" d="M204.042,77.69l-2.703,6.881h-1.669l-2.703-6.881h1.529c0.133,0,0.244,0.031,0.334,0.094
		c0.088,0.062,0.15,0.142,0.186,0.24l1.155,3.403c0.075,0.231,0.142,0.457,0.2,0.678c0.058,0.22,0.109,0.441,0.153,0.664
		c0.049-0.223,0.104-0.444,0.163-0.664c0.061-0.221,0.131-0.446,0.211-0.678l1.194-3.403c0.031-0.099,0.091-0.179,0.181-0.24
		c0.089-0.062,0.193-0.094,0.313-0.094H204.042z"/>
	<path fill="#FF809E" d="M206.07,81.414c0.059,0.646,0.241,1.117,0.551,1.415c0.309,0.299,0.713,0.447,1.211,0.447
		c0.254,0,0.473-0.03,0.658-0.09c0.184-0.061,0.347-0.127,0.486-0.2c0.141-0.073,0.268-0.141,0.381-0.2
		c0.113-0.061,0.226-0.09,0.337-0.09c0.143,0,0.254,0.053,0.334,0.16l0.534,0.667c-0.196,0.227-0.412,0.415-0.648,0.564
		c-0.235,0.148-0.48,0.267-0.733,0.354c-0.254,0.087-0.51,0.146-0.768,0.18c-0.259,0.033-0.507,0.051-0.747,0.051
		c-0.48,0-0.93-0.079-1.346-0.237s-0.778-0.392-1.088-0.701c-0.309-0.309-0.553-0.692-0.73-1.151
		c-0.178-0.458-0.268-0.989-0.268-1.595c0-0.467,0.078-0.907,0.23-1.321c0.154-0.414,0.375-0.774,0.664-1.081
		c0.289-0.308,0.641-0.551,1.055-0.731c0.414-0.18,0.881-0.27,1.402-0.27c0.439,0,0.846,0.069,1.217,0.21
		c0.372,0.14,0.692,0.344,0.962,0.61c0.269,0.268,0.478,0.596,0.628,0.984c0.148,0.39,0.223,0.833,0.223,1.332
		c0,0.138-0.006,0.251-0.02,0.34s-0.036,0.16-0.066,0.214c-0.031,0.054-0.074,0.09-0.127,0.11c-0.054,0.02-0.123,0.029-0.207,0.029
		H206.07z M208.967,80.32c0-0.191-0.025-0.374-0.076-0.548c-0.052-0.173-0.133-0.327-0.244-0.46
		c-0.111-0.134-0.252-0.239-0.42-0.317c-0.17-0.078-0.372-0.117-0.607-0.117c-0.441,0-0.785,0.125-1.035,0.374
		c-0.249,0.249-0.411,0.605-0.486,1.068H208.967z"/>
	<path fill="#FF809E" d="M213.485,78.825c0.218-0.392,0.47-0.701,0.755-0.928c0.284-0.228,0.617-0.341,1-0.341
		c0.312,0,0.565,0.073,0.762,0.221l-0.121,1.361c-0.021,0.089-0.057,0.15-0.104,0.184c-0.046,0.033-0.109,0.05-0.189,0.05
		c-0.071,0-0.174-0.01-0.307-0.03c-0.134-0.02-0.258-0.029-0.374-0.029c-0.169,0-0.319,0.024-0.45,0.073
		c-0.132,0.049-0.248,0.118-0.352,0.207c-0.102,0.089-0.193,0.197-0.276,0.327c-0.082,0.129-0.159,0.275-0.229,0.44v4.211h-1.843
		V77.69h1.088c0.187,0,0.315,0.033,0.388,0.1c0.07,0.067,0.121,0.183,0.152,0.348L213.485,78.825z"/>
	<path fill="#FF809E" d="M218.631,78.484c0.271-0.271,0.572-0.489,0.901-0.654c0.329-0.164,0.698-0.246,1.108-0.246
		c0.396,0,0.752,0.079,1.07,0.236c0.318,0.158,0.59,0.384,0.814,0.678s0.398,0.648,0.521,1.064s0.184,0.882,0.184,1.398
		c0,0.556-0.069,1.062-0.21,1.518c-0.141,0.457-0.34,0.847-0.598,1.172s-0.566,0.576-0.924,0.754
		c-0.358,0.178-0.758,0.268-1.198,0.268c-0.214,0-0.405-0.021-0.574-0.063c-0.169-0.043-0.325-0.102-0.467-0.178
		c-0.143-0.075-0.274-0.165-0.394-0.27c-0.121-0.104-0.234-0.222-0.341-0.351l-0.073,0.414c-0.031,0.129-0.082,0.219-0.154,0.27
		c-0.07,0.052-0.166,0.077-0.286,0.077h-1.222V74.62h1.842V78.484z M218.631,82.756c0.174,0.2,0.361,0.341,0.564,0.421
		c0.202,0.08,0.412,0.12,0.631,0.12c0.227,0,0.432-0.041,0.617-0.124c0.185-0.082,0.344-0.213,0.477-0.394
		c0.134-0.181,0.236-0.415,0.308-0.704s0.106-0.639,0.106-1.048c0-0.365-0.029-0.675-0.086-0.931
		c-0.059-0.256-0.145-0.467-0.258-0.631c-0.113-0.165-0.252-0.285-0.417-0.36c-0.165-0.076-0.356-0.113-0.573-0.113
		c-0.29,0-0.54,0.063-0.752,0.189c-0.211,0.127-0.416,0.313-0.617,0.558V82.756z"/>
</g>
<g enable-background="new    ">
	<path fill="#EDA14A" d="M254.158,77.584c0.516,0,0.985,0.082,1.408,0.246c0.423,0.165,0.785,0.399,1.088,0.704
		c0.303,0.306,0.536,0.676,0.7,1.111c0.165,0.437,0.247,0.928,0.247,1.476c0,0.547-0.082,1.04-0.247,1.478
		c-0.164,0.438-0.397,0.812-0.7,1.118c-0.303,0.308-0.665,0.543-1.088,0.708c-0.423,0.164-0.893,0.247-1.408,0.247
		c-0.521,0-0.993-0.083-1.419-0.247c-0.425-0.165-0.788-0.4-1.091-0.708c-0.303-0.307-0.537-0.68-0.704-1.118
		c-0.167-0.438-0.25-0.931-0.25-1.478c0-0.548,0.083-1.039,0.25-1.476c0.167-0.436,0.401-0.806,0.704-1.111
		c0.303-0.305,0.666-0.539,1.091-0.704C253.165,77.666,253.638,77.584,254.158,77.584z M254.158,83.29
		c0.524,0,0.914-0.182,1.168-0.544c0.253-0.362,0.38-0.902,0.38-1.618c0-0.712-0.127-1.25-0.38-1.612
		c-0.254-0.362-0.644-0.544-1.168-0.544c-0.539,0-0.935,0.182-1.188,0.544c-0.253,0.362-0.38,0.9-0.38,1.612
		c0,0.716,0.127,1.256,0.38,1.618C253.224,83.108,253.619,83.29,254.158,83.29z"/>
	<path fill="#EDA14A" d="M260.605,78.484c0.271-0.271,0.571-0.489,0.9-0.654c0.329-0.164,0.698-0.246,1.108-0.246
		c0.396,0,0.753,0.079,1.071,0.236c0.317,0.158,0.589,0.384,0.813,0.678s0.398,0.648,0.521,1.064
		c0.123,0.416,0.184,0.882,0.184,1.398c0,0.556-0.069,1.062-0.21,1.518c-0.14,0.457-0.339,0.847-0.598,1.172
		c-0.258,0.325-0.565,0.576-0.924,0.754s-0.758,0.268-1.198,0.268c-0.214,0-0.404-0.021-0.574-0.063
		c-0.169-0.043-0.324-0.102-0.467-0.178c-0.143-0.075-0.273-0.165-0.394-0.27s-0.233-0.222-0.341-0.351l-0.073,0.414
		c-0.031,0.129-0.082,0.219-0.153,0.27c-0.071,0.052-0.167,0.077-0.287,0.077h-1.222V74.62h1.843V78.484z M260.605,82.756
		c0.173,0.2,0.361,0.341,0.563,0.421s0.413,0.12,0.631,0.12c0.227,0,0.433-0.041,0.617-0.124c0.185-0.082,0.344-0.213,0.478-0.394
		c0.133-0.181,0.235-0.415,0.307-0.704s0.106-0.639,0.106-1.048c0-0.365-0.028-0.675-0.086-0.931
		c-0.059-0.256-0.144-0.467-0.258-0.631c-0.113-0.165-0.252-0.285-0.417-0.36c-0.164-0.076-0.355-0.113-0.573-0.113
		c-0.29,0-0.54,0.063-0.751,0.189c-0.212,0.127-0.417,0.313-0.617,0.558V82.756z"/>
	<path fill="#EDA14A" d="M268.28,77.69v7.015c0,0.312-0.04,0.604-0.12,0.877c-0.08,0.274-0.211,0.513-0.391,0.718
		c-0.181,0.205-0.416,0.367-0.707,0.487c-0.292,0.12-0.651,0.18-1.078,0.18c-0.16,0-0.311-0.011-0.451-0.033
		c-0.14-0.022-0.283-0.053-0.43-0.093l0.066-0.975c0.009-0.089,0.041-0.151,0.097-0.188c0.056-0.035,0.166-0.053,0.33-0.053
		c0.165,0,0.301-0.015,0.407-0.044c0.107-0.028,0.192-0.079,0.257-0.149c0.064-0.071,0.11-0.166,0.138-0.284
		c0.026-0.118,0.04-0.266,0.04-0.443V77.69H268.28z M268.5,75.734c0,0.156-0.031,0.301-0.093,0.435
		c-0.062,0.133-0.146,0.251-0.251,0.354s-0.227,0.183-0.367,0.24c-0.14,0.058-0.29,0.087-0.45,0.087
		c-0.151,0-0.295-0.029-0.431-0.087s-0.255-0.138-0.356-0.24c-0.103-0.103-0.184-0.221-0.244-0.354
		c-0.06-0.134-0.09-0.278-0.09-0.435c0-0.155,0.03-0.301,0.09-0.437c0.061-0.136,0.142-0.255,0.244-0.357
		c0.102-0.103,0.221-0.183,0.356-0.24s0.279-0.087,0.431-0.087c0.16,0,0.311,0.029,0.45,0.087c0.141,0.058,0.263,0.138,0.367,0.24
		s0.188,0.222,0.251,0.357C268.469,75.434,268.5,75.579,268.5,75.734z"/>
	<path fill="#EDA14A" d="M271.323,81.414c0.059,0.646,0.241,1.117,0.551,1.415c0.31,0.299,0.713,0.447,1.212,0.447
		c0.253,0,0.473-0.03,0.657-0.09c0.185-0.061,0.347-0.127,0.487-0.2c0.14-0.073,0.267-0.141,0.38-0.2
		c0.113-0.061,0.226-0.09,0.337-0.09c0.143,0,0.254,0.053,0.334,0.16l0.534,0.667c-0.196,0.227-0.412,0.415-0.647,0.564
		c-0.236,0.148-0.48,0.267-0.734,0.354s-0.51,0.146-0.768,0.18s-0.507,0.051-0.747,0.051c-0.48,0-0.929-0.079-1.345-0.237
		s-0.779-0.392-1.088-0.701c-0.31-0.309-0.553-0.692-0.731-1.151c-0.178-0.458-0.267-0.989-0.267-1.595
		c0-0.467,0.077-0.907,0.23-1.321s0.375-0.774,0.664-1.081c0.289-0.308,0.641-0.551,1.055-0.731c0.413-0.18,0.881-0.27,1.401-0.27
		c0.44,0,0.847,0.069,1.218,0.21c0.371,0.14,0.691,0.344,0.961,0.61c0.27,0.268,0.479,0.596,0.628,0.984
		c0.148,0.39,0.223,0.833,0.223,1.332c0,0.138-0.006,0.251-0.02,0.34s-0.036,0.16-0.066,0.214c-0.031,0.054-0.074,0.09-0.127,0.11
		c-0.054,0.02-0.123,0.029-0.207,0.029H271.323z M274.22,80.32c0-0.191-0.025-0.374-0.076-0.548
		c-0.052-0.173-0.133-0.327-0.244-0.46c-0.111-0.134-0.251-0.239-0.42-0.317s-0.372-0.117-0.607-0.117
		c-0.44,0-0.785,0.125-1.034,0.374c-0.25,0.249-0.412,0.605-0.487,1.068H274.22z"/>
	<path fill="#EDA14A" d="M282.002,79.226c-0.054,0.071-0.106,0.126-0.16,0.163c-0.054,0.038-0.129,0.057-0.228,0.057
		c-0.089,0-0.174-0.025-0.257-0.076c-0.082-0.052-0.177-0.107-0.283-0.167c-0.106-0.061-0.233-0.116-0.381-0.167
		c-0.146-0.051-0.329-0.077-0.547-0.077c-0.276,0-0.515,0.051-0.718,0.15c-0.202,0.101-0.37,0.244-0.504,0.431
		c-0.133,0.187-0.232,0.414-0.297,0.681s-0.097,0.567-0.097,0.901c0,0.703,0.142,1.241,0.424,1.615
		c0.282,0.373,0.669,0.561,1.158,0.561c0.169,0,0.314-0.015,0.437-0.044c0.123-0.028,0.229-0.065,0.32-0.11
		c0.092-0.044,0.171-0.093,0.237-0.146s0.13-0.103,0.19-0.146c0.06-0.045,0.12-0.081,0.18-0.11c0.061-0.029,0.128-0.043,0.204-0.043
		c0.143,0,0.254,0.053,0.334,0.16l0.526,0.667c-0.195,0.227-0.404,0.415-0.627,0.564c-0.223,0.148-0.453,0.267-0.69,0.354
		c-0.238,0.087-0.479,0.146-0.725,0.18c-0.244,0.033-0.487,0.051-0.728,0.051c-0.423,0-0.823-0.079-1.201-0.237
		s-0.71-0.389-0.994-0.69c-0.285-0.303-0.511-0.675-0.678-1.115s-0.25-0.943-0.25-1.508c0-0.503,0.073-0.971,0.22-1.401
		c0.147-0.432,0.363-0.806,0.647-1.122c0.285-0.315,0.638-0.563,1.058-0.744c0.421-0.18,0.907-0.27,1.459-0.27
		c0.524,0,0.985,0.084,1.381,0.253c0.396,0.169,0.752,0.414,1.068,0.734L282.002,79.226z"/>
	<path fill="#EDA14A" d="M285.846,84.678c-0.312,0-0.587-0.045-0.827-0.137c-0.24-0.091-0.443-0.221-0.607-0.391
		c-0.165-0.169-0.289-0.373-0.374-0.613c-0.084-0.24-0.127-0.512-0.127-0.814v-3.711h-0.647c-0.098,0-0.181-0.031-0.25-0.094
		c-0.068-0.062-0.104-0.155-0.104-0.28v-0.721l1.102-0.2l0.374-1.781c0.049-0.201,0.185-0.301,0.407-0.301h0.961v2.096h1.775v1.281
		h-1.775v3.591c0,0.191,0.045,0.343,0.137,0.454c0.091,0.111,0.221,0.166,0.391,0.166c0.089,0,0.164-0.01,0.227-0.029
		c0.062-0.021,0.115-0.043,0.16-0.067c0.044-0.024,0.086-0.046,0.123-0.066c0.038-0.02,0.077-0.03,0.117-0.03
		c0.054,0,0.098,0.013,0.134,0.037c0.035,0.024,0.07,0.065,0.106,0.123l0.554,0.881c-0.253,0.2-0.54,0.352-0.86,0.454
		S286.188,84.678,285.846,84.678z"/>
</g>
<path fill="none" stroke="#FF809E" stroke-width="2" stroke-miterlimit="10" d="M69.392,33.454c0,0-3.904-21.454,29.466-21.454
	c47.211,0,93.209,0,93.209,0s20.091,0.003,20.091,17.492"/>
<g id="_x39_._Rules">
</g>
<g id="_x31_0._Annotations">
</g>
<g id="_x31_1._Correct_sent">
</g>
<g id="_x31_2._Light_bulb">
</g>
<g id="Text" display="none">
</g>
<g id="Arrows" display="none">
</g>
</svg>
